<?xml version="1.0" encoding="UTF-8" standalone="no"?>
<!-- Created with Inkscape (http://www.inkscape.org/) -->
<svg id="svg2" xmlns:rdf="http://www.w3.org/1999/02/22-rdf-syntax-ns#" xmlns="http://www.w3.org/2000/svg" height="700" width="900" version="1.1" xmlns:cc="http://creativecommons.org/ns#" xmlns:dc="http://purl.org/dc/elements/1.1/" viewBox="0 0 900.00001 700.00001">
 <metadata id="metadata7">
  <rdf:RDF>
   <cc:Work rdf:about="">
    <dc:format>image/svg+xml</dc:format>
    <dc:type rdf:resource="http://purl.org/dc/dcmitype/StillImage"/>
    <dc:title/>
   </cc:Work>
  </rdf:RDF>
 </metadata>
 <g fill="none">
  <path id="path4900" stroke-linejoin="round" d="m158.68 371.26v-205.52h298.31 298.31v205.52 205.52h-298.31-298.31v-205.52zm160.38 190.64 0.1545-1.3407 7.2294-0.13604 7.2293-0.13605 0.4638-2.0921 0.4637-2.0921h4.5819 4.5819v-2.2151-2.2152h3.692c3.6099 0 3.692-0.0275 3.692-1.2306 0-1.1284 0.182-1.2307 2.1919-1.2307 3.3402 0 4.6997-0.80604 4.6997-2.7864 0-1.6088 0.046-1.6438 2.1166-1.6438 2.4558 0 3.2982-0.64665 3.2982-2.5315 0-1.2364 0.1762-1.3628 2.092-1.5014 1.9551-0.14146 2.1022-0.25435 2.2442-1.7222 0.1325-1.3677 0.3553-1.5905 1.7229-1.7229 1.2187-0.118 1.7365-0.50849 2.3092-1.7413 0.5998-1.2906 1.0283-1.5912 2.2809-1.5998 1.6047-0.0114 2.1276-0.8245 2.1427-3.3334 0.01-0.89184 0.2842-1.1076 1.4309-1.1076 1.5496 0 2.0218-0.69911 2.0218-2.9938 0-1.1708 0.2093-1.4365 1.1321-1.4365 1.3443 0 2.3136-0.85181 2.3136-2.0332 0-0.50863 0.4463-0.91524 1.1076-1.0092 0.9207-0.13079 1.1331-0.51026 1.2589-2.2494 0.1457-2.0129 0.2137-2.0921 1.7934-2.0921 1.6769 0 2.2395-0.62845 2.2395-2.5016 0-0.5193 0.3323-0.94424 0.7384-0.94424 0.5156 0 0.7384-0.51961 0.7384-1.7229 0-1.4145 0.1825-1.7229 1.0196-1.7229 1.4414 0 2.4262-1.1613 2.4262-2.861 0-1.0421 0.28-1.5278 0.9878-1.7128 0.6128-0.16029 1.1013-0.82572 1.2866-1.753 0.2308-1.1537 0.5951-1.529 1.5967-1.645 1.1462-0.13285 1.3153-0.39447 1.449-2.2425 0.1219-1.686 0.3356-2.0921 1.1009-2.0921 0.6201 0 1.1995-0.59807 1.6696-1.7229 0.3958-0.9476 0.9526-1.7229 1.2372-1.7229 0.2845 0 0.5173-0.88603 0.5173-1.969 0-1.6037 0.1729-1.969 0.932-1.969 1.061 0 1.5293-0.91687 1.5293-2.9938 0-1.1083 0.225-1.4365 0.9846-1.4365 0.7182 0 0.9845-0.32819 0.9845-1.2134 0-0.70947 0.4088-1.4321 0.9845-1.7402 0.6723-0.35981 0.9845-1.0307 0.9845-2.1158 0-1.1755 0.2881-1.7152 1.1076-2.0748 0.7012-0.30765 1.1667-1.0031 1.2688-1.8957 0.1019-0.89139 0.5091-1.5008 1.1075-1.6573 0.7199-0.18827 0.9464-0.68607 0.9464-2.0801 0-1.4771 0.2388-1.9414 1.2306-2.3934 0.6769-0.30837 1.2307-0.95522 1.2307-1.4373 0-0.48219 0.4431-1.1534 0.9845-1.4915 0.6791-0.42412 0.9845-1.148 0.9845-2.3336 0-1.1812 0.2255-1.7187 0.7211-1.7187 0.901 0 1.7403-1.5134 1.7403-3.1382 0-0.67871 0.2215-1.3709 0.4922-1.5382 0.2707-0.16736 0.4923-0.79169 0.4923-1.3874 0-0.59576 0.443-1.3599 0.9845-1.698 0.6791-0.42412 0.9845-1.148 0.9845-2.3336 0-1.2103 0.2215-1.7187 0.7489-1.7187 0.4119 0 0.9896-0.60918 1.2836-1.3537 0.2941-0.74453 0.7324-1.7384 0.974-2.2085 0.2417-0.47008 0.4393-1.6331 0.4393-2.5843 0-1.4014 0.1867-1.7296 0.9845-1.7296 0.797 0 0.9845-0.32819 0.9845-1.7229 0-0.9476 0.2374-1.7229 0.5275-1.7229 0.9316 0 1.9339-1.3698 1.9339-2.6432 0-0.68023 0.2214-1.3737 0.4922-1.541 0.2708-0.16731 0.4923-1.0406 0.4923-1.9407 0-1.2224 0.249-1.7016 0.9844-1.8939 0.6653-0.17396 0.9845-0.67143 0.9845-1.5342 0-0.7022 0.2375-1.2768 0.5275-1.2768 0.9313 0 1.7947-1.2287 2.091-2.9758 0.6777-3.9962 0.9769-4.9003 1.6216-4.9003 0.4636 0 0.6826-0.60731 0.6826-1.8927 0-1.2676 0.3252-2.187 0.9844-2.7837 0.5416-0.49005 0.9847-1.3307 0.9847-1.868 0-0.53735 0.3444-1.2289 0.7653-1.5367 0.836-0.61131 1.6656-3.5756 1.6842-6.0179 0.01-1.2318 0.2605-1.6089 1.2348-1.8534 0.8176-0.20523 1.3172-0.75333 1.5065-1.6532 0.1559-0.7404 0.4916-1.7308 0.746-2.201 0.2543-0.47014 0.4625-1.4116 0.4625-2.0921 0-0.77167 0.2778-1.2373 0.7383-1.2373 0.547 0 0.7384-0.57427 0.7384-2.2151 0-1.2184 0.2174-2.2152 0.4829-2.2152 0.2656 0 0.6232-0.55897 0.7947-1.2422 0.1714-0.68318 0.753-1.5512 1.2924-1.9289 0.704-0.49319 1.1353-1.6698 1.5294-4.1727 0.4171-2.6487 0.7391-3.4859 1.3413-3.4859 0.8357 0 1.6952-1.3912 2.1287-3.4458 0.7285-3.4521 0.9972-4.2164 1.6092-4.5778 0.3666-0.21649 0.6736-0.9918 0.6823-1.7229 0.01-0.73106 0.3408-1.7592 0.7383-2.2848 0.3975-0.52555 0.7228-1.5519 0.7228-2.2808 0-0.91127 0.3075-1.4057 0.9845-1.5827 0.7168-0.18743 0.9845-0.67142 0.9845-1.7803 0-0.83756 0.2215-1.5228 0.4923-1.5228 0.2707 0 0.4922-0.88609 0.4922-1.969 0-1.6346 0.1657-1.969 0.9752-1.969 0.6664 0 1.0654-0.4285 1.2603-1.3537 0.1569-0.74453 0.4934-1.7383 0.7479-2.2085 0.2543-0.47014 0.4624-1.6331 0.4624-2.5844 0-1.4014 0.1869-1.7296 0.9845-1.7296 0.7938 0 0.9846-0.32818 0.9846-1.6938 0-0.93162 0.2215-1.8308 0.4922-1.9981 0.2708-0.16731 0.4922-0.90314 0.4922-1.6352 0-0.90817 0.3521-1.4854 1.1077-1.8169 0.7871-0.34536 1.1533-0.98433 1.2657-2.2088 0.087-0.94759 0.3639-1.9333 0.6153-2.1906 0.2515-0.25719 0.4573-0.97709 0.4573-1.5998 0-0.62274 0.2524-1.1322 0.561-1.1322 0.9355 0 1.868-1.6298 1.8846-3.2937 0.01-0.86392 0.2371-1.7077 0.5079-1.875 0.2707-0.16735 0.4922-1.0665 0.4922-1.9981 0-1.3657 0.1908-1.6939 0.9846-1.6939 0.7969 0 0.9845-0.32818 0.9845-1.7229 0-0.9476 0.2215-1.7229 0.4921-1.7229 0.2709 0 0.4923-0.73785 0.4923-1.6397 0-1.2452 0.2961-1.7981 1.2307-2.2983 0.8487-0.45421 1.2306-1.0734 1.2306-1.9948 0-0.92218 0.3051-1.416 0.9846-1.5936 0.7822-0.20458 0.9845-0.67142 0.9845-2.2726 0-1.1083 0.1998-2.0152 0.4441-2.0152 0.2442 0 0.6768-0.66744 0.9611-1.4832 0.2844-0.81584 0.8599-1.6148 1.2789-1.7756 0.4803-0.18432 0.7617-0.9092 0.7617-1.9625 0-1.0995 0.2343-1.6702 0.6857-1.6702 0.7874 0 1.2833-1.0462 1.2833-2.7078 0-1.4075 1.4149-4.1804 2.5844-5.0649 0.5274-0.39895 0.8614-1.3086 0.8614-2.3466 0-1.1137 0.2331-1.695 0.68-1.695 0.395 0 0.9136-0.92813 1.2377-2.2152 0.3068-1.2183 0.7761-2.2151 1.0429-2.2151 0.2669 0 0.4852-0.74951 0.4852-1.6655 0-1.2515 0.2447-1.7295 0.9845-1.923 0.7169-0.18747 0.9845-0.67143 0.9845-1.7803 0-0.83756 0.2158-1.5228 0.4797-1.5228 0.2637 0 0.8505-0.71991 1.3038-1.5998 0.4535-0.87989 1.2345-1.8893 1.7357-2.243 0.5858-0.41354 0.9112-1.2486 0.9112-2.3382 0-1.1785 0.225-1.695 0.7384-1.695 0.4923 0 0.7384-0.49226 0.7384-1.4768 0-0.81224 0.2594-1.4768 0.5765-1.4768 1.0951 0 2.377-1.634 2.377-3.0298 0-0.91672 0.2551-1.4005 0.7384-1.4005 0.5469 0 0.7383-0.57431 0.7383-2.2152 0-1.7248 0.1787-2.2152 0.8072-2.2152 0.9664 0 2.109-1.3859 2.1308-2.5844 0.01-0.47378 0.3479-0.86141 0.7541-0.86141 0.5193 0 0.7383-0.52476 0.7383-1.769 0-1.3555 0.2303-1.8292 0.9853-2.0267 0.588-0.15369 1.1455-0.87979 1.3822-1.7998 0.3044-1.183 0.7055-1.5785 1.7221-1.698 1.2161-0.14293 1.3251-0.33547 1.3251-2.3382 0-1.8601 0.1467-2.1824 0.9926-2.1824 0.6496 0 1.2763-0.59526 1.8141-1.7229 0.4519-0.9476 1.0021-1.7229 1.2227-1.7229s0.4011-0.77531 0.4011-1.7229c0-1.4696 0.1664-1.7229 1.1322-1.7229 1.5722 0 2.3137-0.89907 2.3137-2.8059 0-1.4768 0.1341-1.6244 1.4766-1.6244 1.3545 0 1.4769-0.14021 1.4769-1.6917 0-1.5488 0.1351-1.7048 1.5998-1.846 1.4606-0.14083 1.6132-0.31494 1.7526-2.0002 0.1273-1.5382 0.3366-1.846 1.2553-1.846 1.4148 0 2.2839-0.88038 2.2839-2.3136 0-0.92982 0.2639-1.1322 1.4768-1.1322 1.4221 0 1.4767-0.0821 1.4767-2.2152 0-2.2034 0.01-2.2152 1.7229-2.2152 1.6408 0 1.7229-0.0821 1.7229-1.7229 0-1.5476 0.1378-1.7245 1.3537-1.7386 1.7501-0.0202 3.0767-1.045 3.0767-2.3768 0-0.8526 0.2945-1.0533 1.5455-1.0533 1.7971 0 2.8466-1.1254 2.8691-3.0766 0.013-1.186 0.2072-1.3537 1.5612-1.3537 1.6263 0 2.8421-1.0952 2.869-2.5844 0.013-0.68176 0.4521-0.86285 2.1079-0.86818 3.5972-0.0116 4.3073-0.38511 4.3073-2.2658 0-1.6343 0.04-1.6655 2.1167-1.6655 2.5403 0 3.2981-0.64467 3.2981-2.8059v-1.6244h3.4458 3.4458v-1.7229-1.7229h4.9226 4.9225v-1.7229-1.7229l5.7841-0.0156c6.3462-0.0172 7.507-0.42119 7.507-2.613v-1.2894l10.214-0.13306 10.214-0.13305 0.1512-2.0901 0.1513-2.0901 58.181-0.12508 58.181-0.12508v-2.7074-2.7074l-70.094-0.12475c-51.395-0.0915-70.272 0.0231-70.762 0.42947-0.3674 0.30482-0.6679 0.97013-0.6679 1.4785 0 0.85631-0.4659 0.92424-6.339 0.92424-6.8647 0-7.2332 0.13259-7.5237 2.7074l-0.1666 1.4768-4.1597 0.14457c-4.4956 0.15623-5.4394 0.56863-5.4394 2.377 0 1.1344-0.1206 1.1704-3.9207 1.1704-4.2689 0-4.9399 0.43024-4.9399 3.1673 0 1.16-0.1726 1.263-2.1167 1.263-2.2677 0-3.2981 0.64595-3.2981 2.0675 0 0.68759-0.3933 0.88606-1.7553 0.88606-2.5459 0-3.6596 0.75429-3.6596 2.4786 0 1.3528-0.1321 1.4595-1.8072 1.4595-2.216 0-3.6077 1.1687-3.6077 3.0298 0 1.2658-0.1617 1.4005-1.6815 1.4005-1.3952 0-1.7931 0.25167-2.3355 1.4768-0.3594 0.81223-0.9192 1.4768-1.2439 1.4768-0.8373 0-2.1229 1.986-2.1229 3.2795 0 0.90583-0.3139 1.1174-1.846 1.2442-1.6056 0.13289-1.9073 0.36105-2.3169 1.7526-0.3212 1.0907-0.7739 1.5998-1.4226 1.5998-1.2392 0-2.2554 1.3741-2.275 3.0766-0.013 1.1116-0.2357 1.3537-1.2463 1.3537-1.1019 0-1.2307 0.20047-1.2307 1.9157 0 1.616-0.1863 1.9624-1.1914 2.2147-0.8146 0.20444-1.2941 0.76633-1.5159 1.7763-0.251 1.1428-0.5929 1.4772-1.5102 1.4772-0.9999 0-1.2343 0.30426-1.4964 1.9428-0.2614 1.6351-0.5353 1.9922-1.7286 2.2543-1.0817 0.23757-1.4181 0.59144-1.4181 1.4916 0 0.71566-0.4844 1.4976-1.2306 1.9865-0.7992 0.52362-1.2307 1.2628-1.2307 2.1081 0 0.76864-0.4032 1.5536-0.9845 1.9166-0.6791 0.42412-0.9845 1.148-0.9845 2.3336 0 1.4653-0.167 1.7188-1.1323 1.7188-1.4243 0-2.3136 0.86727-2.3136 2.2562 0 0.66079-0.3792 1.174-0.9844 1.3322-0.7464 0.19519-0.9846 0.67147-0.9846 1.969 0 1.2656-0.2429 1.7751-0.9322 1.9554-0.5429 0.14199-1.0687 0.86459-1.2588 1.7302-0.1938 0.88275-0.715 1.588-1.2829 1.7366-0.7505 0.19628-0.9564 0.68387-0.9564 2.2652 0 1.6869-0.1603 2.0151-0.9845 2.0151-0.747 0-0.9845 0.32819-0.9845 1.3601 0 0.93826-0.3435 1.5108-1.1076 1.846-0.7152 0.3138-1.1664 1.0033-1.2737 1.9465-0.091 0.8033-0.5896 1.7573-1.1076 2.12-0.6172 0.43233-0.9415 1.2433-0.9415 2.3545 0 0.93226-0.2373 1.695-0.5275 1.695-0.9393 0-1.9338 1.3742-1.9338 2.6723 0 0.69616-0.2215 1.2658-0.4922 1.2658s-0.4922 0.72201-0.4922 1.6045c0 1.0714-0.3273 1.8088-0.9846 2.2194-0.5566 0.34756-0.9845 1.148-0.9845 1.8413 0 0.67457-0.2373 1.2265-0.5275 1.2265-0.9862 0-1.9338 1.4019-1.9338 2.861 0 1.0405-0.2802 1.5278-0.9845 1.712-0.7793 0.20375-0.9845 0.67143-0.9845 2.2435 0 1.0923-0.2216 2.123-0.4923 2.2903-0.2708 0.16732-0.4923 0.79243-0.4923 1.3891 0 0.65289-0.4409 1.2784-1.1076 1.5708-0.7595 0.33325-1.1559 0.9883-1.2618 2.0851-0.089 0.92547-0.5324 1.8017-1.0522 2.0799-0.494 0.26432-1.0233 1.2061-1.1762 2.0928-0.6477 3.7557-0.955 4.8118-1.4003 4.8118-0.8784 0-1.7455 1.2679-2.0352 2.9758-0.6507 3.8383-0.9638 4.9003-1.4442 4.9003-0.763 0-1.811 1.5877-1.8287 2.7705-0.01 0.57613-0.4646 1.3514-1.0133 1.7229-0.772 0.52264-1.0663 1.4265-1.3018 3.9981-0.2443 2.6684-0.4678 3.3228-1.1343 3.3228-0.4567 0-1.0616 0.4984-1.3445 1.1076-1.123 2.4195-1.6211 3.9059-1.6211 4.8381 0 0.53725-0.3323 1.1043-0.7384 1.2602-0.4648 0.17833-0.7442 0.9479-0.754 2.0766-0.01 0.98633-0.3409 2.2233-0.7385 2.7488-0.3974 0.52555-0.7227 1.3413-0.7227 1.8128 0 0.47146-0.4268 0.99268-0.9484 1.1582-0.893 0.28339-2.0051 3.6516-2.0051 6.0722 0 0.46394-0.4983 1.0622-1.1076 1.3295-0.7796 0.342-1.1554 0.98762-1.2689 2.1802-0.089 0.93187-0.4763 2.1441-0.8614 2.6939-0.3851 0.54979-0.7002 1.5111-0.7002 2.1362 0 0.62512-0.3322 1.2641-0.7384 1.4199-0.4208 0.1615-0.7383 0.89572-0.7383 1.7075 0 0.78329-0.219 1.4241-0.4865 1.4241-0.2676 0-0.6271 0.87978-0.7991 1.9551-0.2083 1.3027-0.6208 2.0529-1.2365 2.2483-0.6672 0.21177-0.9238 0.76253-0.9238 1.983 0 0.92936-0.2215 1.6897-0.4922 1.6897-0.2708 0-0.4923 0.74946-0.4923 1.6655 0 1.2035-0.2513 1.7312-0.9061 1.9024-0.959 0.2508-2.5397 4.2561-2.5397 6.4354 0 0.78978-0.3386 1.2923-0.9845 1.4612-0.7822 0.20453-0.9845 0.67142-0.9845 2.2726 0 1.1083-0.2215 2.0151-0.4923 2.0151-0.2707 0-0.4922 0.61204-0.4922 1.3601 0 0.93826-0.3436 1.5108-1.1076 1.846-0.7872 0.34535-1.1534 0.98432-1.2658 2.2088-0.087 0.94761-0.3639 1.9334-0.6153 2.1906-0.2514 0.25719-0.4572 1.0879-0.4572 1.846 0 1.0217-0.2398 1.3783-0.9271 1.3783-0.9445 0-1.5148 1.2406-1.5275 3.3228-0.01 0.60918-0.2282 1.1076-0.499 1.1076-0.2706 0-0.4921 0.74945-0.4921 1.6655 0 1.2515-0.2447 1.7295-0.9846 1.923-0.7117 0.1861-0.9845 0.67142-0.9845 1.7512 0 0.82163-0.2215 1.6307-0.4923 1.798-0.2706 0.16736-0.4922 1.0665-0.4922 1.9981 0 0.93162-0.2373 1.6938-0.5274 1.6938-0.9317 0-1.934 1.3698-1.934 2.6432 0 0.68018-0.2215 1.3736-0.4921 1.541-0.2708 0.16731-0.4924 1.0406-0.4924 1.9407 0 1.2038-0.2516 1.7022-0.9518 1.8854-0.6281 0.16421-1.0664 0.85835-1.288 2.0398-0.1859 0.99101-0.7501 2.0124-1.2632 2.287-0.5881 0.31472-0.9273 1.0301-0.9273 1.9557 0 0.8027-0.2215 1.4595-0.4922 1.4595-0.2708 0-0.4923 0.77526-0.4923 1.7229 0 0.9476-0.2209 1.7229-0.491 1.7229-0.6677 0-2.9548 4.831-2.9548 6.2412 0 0.62389-0.4431 1.411-0.9845 1.7492-0.5415 0.33817-0.9845 1.1154-0.9845 1.7271 0 0.61169-0.2525 1.1122-0.5611 1.1122-0.8885 0-1.8675 1.5984-1.8845 3.0766-0.01 0.82144-0.2853 1.3537-0.7014 1.3537-0.7541 0-1.2834 1.0348-1.2834 2.5093 0 1.4073-1.1606 4.8746-1.6317 4.8746-0.89 0-1.814 1.4866-1.814 2.9184 0 0.96411-0.2484 1.5119-0.6858 1.5119-0.7527 0-1.2833 1.0344-1.2833 2.5015 0 0.51936-0.2525 0.94426-0.561 0.94426-0.758 0-1.8653 1.5213-1.8846 2.5892-0.01 0.47643-0.4587 1.2456-1.0002 1.7092-0.5415 0.46365-0.9845 1.4346-0.9845 2.1577 0 0.72305-0.2997 1.4296-0.6658 1.5702-0.596 0.22872-1.9377 3.3307-2.6065 6.0259-0.1375 0.55406-0.7312 1.2186-1.3193 1.4768-0.6475 0.28429-1.1308 1.0035-1.2252 1.8232-0.086 0.74586-0.46 1.3537-0.8335 1.3537-0.9195 0-2.2104 1.9326-2.2104 3.3092 0 0.66838-0.2982 1.1211-0.7384 1.1211-0.5157 0-0.7383 0.51959-0.7383 1.7229 0 1.3623-0.195 1.7229-0.9319 1.7229-0.9745 0-1.5295 0.90601-1.5295 2.4974 0 0.51708-0.4429 1.2168-0.9844 1.555-0.6575 0.41054-0.9846 1.1479-0.9846 2.2194 0 1.346-0.1823 1.6045-1.1322 1.6045-1.4568 0-2.3136 0.87389-2.3136 2.3597 0 0.7643-0.3459 1.2688-0.9845 1.4358-0.7398 0.19343-0.9845 0.67143-0.9845 1.9229 0 1.252-0.2139 1.6694-0.8615 1.6812-1.2579 0.0226-2.5843 1.182-2.5843 2.2584 0 0.5142-0.443 1.2116-0.9846 1.5497-0.6791 0.42416-0.9845 1.148-0.9845 2.3336 0 1.4653-0.1669 1.7188-1.1321 1.7188-1.504 0-2.3136 0.88378-2.3136 2.5255 0 1.0191-0.2678 1.3821-1.1077 1.5014-0.6825 0.0969-1.3908 0.76719-1.8459 1.7465-0.4061 0.87404-1.0817 1.594-1.5014 1.5998-1.2142 0.0168-1.9444 1.0641-1.9444 2.7882 0 1.5259-0.092 1.6028-2.0922 1.7476-1.9555 0.14149-2.1019 0.25395-2.2443 1.7243-0.1419 1.4664-0.292 1.5831-2.2152 1.7229-1.931 0.14037-2.0727 0.25222-2.217 1.7498-0.1232 1.2768-0.3745 1.5998-1.2442 1.5998-1.7818 0-3.2781 1.361-3.2781 2.9814 0 1.296-0.1631 1.4489-1.5456 1.4489-1.6262 0-2.842 1.0952-2.8691 2.5844-0.012 0.67919-0.4468 0.86145-2.0534 0.86145-2.2199 0-3.3343 0.92981-3.3614 2.8048-0.013 0.95566-0.3172 1.0992-2.6001 1.2306-2.372 0.13659-2.6449 0.27938-3.3227 1.738-0.715 1.539-0.835 1.5895-3.7977 1.5998-3.329 0.0118-4.0783 0.59551-4.0783 3.178v1.263h-4.6543-4.6541l-0.3206 1.7086-0.3205 1.7086-6.2242 0.13738-6.2241 0.13737-0.1529 1.846-0.1527 1.846h-9.3556c-5.5077 0-9.7471 0.20959-10.308 0.50957-0.6126 0.32789-0.9521 1.03-0.9521 1.969v1.4595h-57.331c-56.178 0-57.341 0.0192-57.84 0.95212-0.5679 1.0612-0.6924 4.608-0.1797 5.1208 0.1814 0.18143 31.803 0.27372 70.27 0.20508l69.94-0.12473 0.1545-1.3407z" stroke="#ff4649" stroke-linecap="round" stroke-width="0.906"/>
  <path id="path4898" stroke-linejoin="round" d="m158.98 371.07v-205.45h297.95 297.95v205.45 205.45h-297.95-297.95v-205.45zm282.72 190.98c0.2336-0.89274 0.8584-1.2585 2.1499-1.2585 2.1955 0 3.3312-1.0082 3.3312-2.9575 0-0.92178 0.3746-1.4473 1.0318-1.4473 1.2352 0 2.6958-1.7715 2.7236-3.3036 0.012-0.60565 0.3032-1.1012 0.6494-1.1012 0.346 0 0.6292-0.70791 0.6292-1.5731 0-1.0954 0.3439-1.5731 1.1326-1.5731 1.5508 0 2.6429-1.2221 2.6429-2.9575 0-0.82404 0.381-1.4473 0.8848-1.4473 0.5891 0 1.0353-1.0937 1.335-3.2732 0.3237-2.3536 0.8707-3.6039 1.9469-4.4504 0.823-0.64748 1.4965-1.5814 1.4965-2.0755 0-0.494 0.2833-0.8982 0.6293-0.8982 0.3461 0 0.6292-0.99107 0.6292-2.2024s0.2832-2.2024 0.6293-2.2024 0.6292-0.96747 0.6292-2.15 0.2245-2.2443 0.4988-2.3597c1.1463-0.48213 3.3064-4.97 3.6705-7.6262 0.2832-2.0659 0.7198-2.9461 1.5722-3.169 0.8112-0.21211 1.1803-0.87811 1.1803-2.1294 0-1.0014 0.2638-2.0898 0.5863-2.4186 0.3226-0.32877 0.9514-2.9339 1.3975-5.7891 0.6507-4.1647 1.0241-5.1913 1.8883-5.1913 1.1478 0 1.4219-0.57839 2.3857-5.034 1.8734-8.6619 2.1207-9.4169 3.1947-9.7577 0.6424-0.20392 1.2579-1.2076 1.4576-2.3767 0.7991-4.681 1.9082-9.0861 2.8042-11.138 0.9709-2.2234 1.8479-5.2052 2.4549-8.3473 0.1836-0.95175 0.5852-1.7304 0.892-1.7304s0.5668-0.49554 0.5778-1.1012 0.4358-1.6508 0.9439-2.3227c0.5082-0.6718 0.9239-2.0168 0.9239-2.9889 0-0.97212 0.2658-1.7675 0.5907-1.7675s0.7641-1.345 0.9761-2.989c0.2119-1.6439 0.6541-3.4806 0.9824-4.0816 0.3283-0.60096 0.597-1.5947 0.597-2.2083 0-0.61362 0.5476-1.4576 1.2168-1.8756 0.7917-0.49436 1.3691-1.8117 1.6526-3.7696 0.2396-1.6553 0.651-3.2928 0.9144-3.6389 0.2633-0.34609 0.6696-1.9035 0.9029-3.4609 0.5618-3.7512 1.6196-6.4343 2.9058-7.3704 0.5947-0.4328 1.2227-2.0751 1.4506-3.7929 0.2211-1.6663 0.9669-4.5752 1.6573-6.4642 0.6905-1.889 1.2554-3.9341 1.2554-4.5447 0-0.61055 0.4247-1.1101 0.9439-1.1101 0.5813 0 0.9439-0.59017 0.9439-1.536 0-0.84479 0.2701-1.7029 0.6001-1.9069 0.3302-0.20401 0.7935-2.0797 1.0298-4.1682 0.2364-2.0885 0.8157-4.1834 1.2876-4.6553 0.4719-0.47187 0.8579-1.1702 0.8579-1.5519 0-0.38167 0.3945-0.84531 0.8766-1.0303 0.5135-0.19704 1.0499-1.7236 1.295-3.6854 0.2301-1.842 0.8178-3.8762 1.3059-4.5206 0.488-0.64437 0.8963-1.6368 0.9073-2.2054 0.011-0.56863 0.4094-1.1833 0.8852-1.3658 0.5071-0.19461 1.0461-1.7806 1.3025-3.8329 0.2406-1.9255 0.7008-3.6637 1.0227-3.8626 0.3218-0.19892 0.5852-1.1614 0.5852-2.1389 0-1.2333 0.3758-1.8755 1.2279-2.0983 0.9365-0.2449 1.3296-1.0872 1.6561-3.5484 0.2355-1.775 0.6739-3.3792 0.9744-3.5649 0.3005-0.18571 0.5463-0.96072 0.5463-1.7223 0-0.76155 0.5376-1.7204 1.1947-2.1307 0.7867-0.49129 1.3419-1.8163 1.6257-3.8797 0.2469-1.7942 0.812-3.2798 1.3223-3.4756 0.4902-0.18811 0.9003-0.98803 0.9113-1.7776 0.011-0.78955 0.4358-1.9852 0.9439-2.657s0.9239-1.7034 0.9239-2.2924 0.3892-1.2203 0.8649-1.4028c0.4758-0.18255 1.0625-1.6491 1.3039-3.259s0.9848-3.473 1.6521-4.1402c0.6672-0.66723 1.2131-1.9043 1.2131-2.7491s0.2832-1.711 0.6293-1.9249c0.346-0.21389 0.6292-0.90822 0.6292-1.5429 0-0.63472 0.3954-1.3058 0.8787-1.4912 0.4977-0.19099 1.0674-1.71 1.3141-3.5035 0.3205-2.3304 0.7531-3.2671 1.6384-3.5481 0.8103-0.25722 1.2028-0.96184 1.2028-2.1598 0-0.99999 0.413-1.9365 0.9439-2.1402 0.5191-0.19921 0.9529-0.86662 0.9639-1.4831 0.011-0.61652 0.4357-1.6706 0.9439-2.3424 0.5081-0.6718 0.9239-1.7426 0.9239-2.3794 0-0.63689 0.4247-1.321 0.9438-1.5202 0.5381-0.20646 0.9438-1.145 0.9438-2.1826 0-1.1987 0.3225-1.8204 0.9439-1.8204 0.5192 0 0.9439-0.47542 0.9439-1.0565 0-1.675 1.4895-5.5017 2.3563-6.0538 0.4345-0.27676 0.79-1.197 0.79-2.0451 0-0.95105 0.3617-1.5419 0.9439-1.5419 0.6592 0 0.9439-0.66422 0.9439-2.2024 0-1.7829 0.2397-2.2024 1.2585-2.2024 0.9788 0 1.2585-0.41951 1.2585-1.8878 0-1.2585 0.3145-1.8878 0.9439-1.8878 0.5872 0 0.9439-0.59428 0.9439-1.5731 0-0.92514 0.361-1.5731 0.8766-1.5731 0.9621 0 1.6404-1.3222 1.6404-3.1977 0-0.66386 0.4246-1.207 0.9438-1.207 0.5605 0 0.9439-0.57748 0.9439-1.4218 0-0.78198 0.5663-1.7754 1.2584-2.2077 0.7115-0.44431 1.2587-1.4674 1.2587-2.3537 0-0.97411 0.3573-1.5678 0.9437-1.5678 0.6558 0 0.944-0.65957 0.944-2.1606 0-1.8874 0.218-2.1858 1.725-2.3597 1.1368-0.13121 1.8045-0.62832 1.958-1.4576 0.128-0.69217 0.626-1.4849 1.1064-1.7617 0.4806-0.27676 0.8738-1.0554 0.8738-1.7304 0-0.67498 0.5663-1.7936 1.2585-2.4858 0.6922-0.69217 1.2585-1.6832 1.2585-2.2024 0-0.52437 0.5593-0.94387 1.2585-0.94387 1.0106 0 1.2585-0.41951 1.2585-2.129 0-1.5998 0.3129-2.2108 1.2585-2.4581 0.6922-0.18101 1.2586-0.71321 1.2586-1.1827 0-0.46947 0.6371-1.1331 1.4158-1.4747 0.8627-0.37852 1.4921-1.282 1.6111-2.3128 0.1367-1.1842 0.6087-1.7505 1.5731-1.8878 1.0434-0.1485 1.4256-0.6925 1.5749-2.2412 0.1396-1.4465 0.5172-2.0451 1.2901-2.0451 1.4137 0 2.6029-1.2075 2.6029-2.6429 0-0.71315 0.4661-1.1326 1.2586-1.1326 0.9229 0 1.2584-0.41951 1.2584-1.5731 0-1.222 0.3231-1.5731 1.4473-1.5731 1.7355 0 2.9575-1.0921 2.9575-2.6429 0-0.77515 0.4753-1.1326 1.5058-1.1326 1.5346 0 2.2698-1.0358 2.2698-3.1977 0-0.92387 0.4465-1.207 1.9034-1.207 1.6037 0 1.9619-0.29189 2.2741-1.8529 0.2831-1.4156 0.762-1.8982 2.0293-2.0451 1.1524-0.13352 1.7187-0.61349 1.8552-1.5724 0.1554-1.092 0.681-1.4205 2.517-1.5731 2.1107-0.17552 2.3385-0.37796 2.5178-2.238 0.1796-1.8631 0.3856-2.0451 2.3147-2.0451 2.185 0 4.0952-1.3258 4.0952-2.8421 0-0.58486 0.9668-0.92648 2.989-1.0562 2.7219-0.17465 3.0064-0.34342 3.1849-1.8893 0.178-1.5422 0.4658-1.7149 3.1462-1.8878 2.8227-0.18198 2.9589-0.27869 3.1476-2.2353l0.1971-2.0451h4.6378c4.5915 0 4.6397-0.0172 4.8368-1.7304 0.1959-1.7033 0.2755-1.7333 5.0758-1.9142 4.7102-0.17751 4.8767-0.23659 4.8767-1.7304 0-1.5361 0.042-1.5467 6.0856-1.5467 4.7798 0 6.3327-0.22348 7.2364-1.0414 0.633-0.57277 1.1508-1.4223 1.1508-1.8878 0-0.68377 2.7068-0.84635 14.091-0.84635 15.096 0 14.855 0.0518 14.855-3.1888 0-1.1488 0.80832-1.2049 19.664-1.3644l19.664-0.16628v-2.8316-2.8316l-130.26-0.17202c-71.64-0.0946-130.89-0.0184-131.67 0.1693-0.8768 0.2114-1.4157 0.81578-1.4157 1.5878 0 0.88121-0.4241 1.2465-1.4473 1.2465-1.8309 0-2.9575 1.1107-2.9575 2.9157 0 1.0622-0.4191 1.4541-1.7158 1.6046-1.0418 0.12088-2.0021 0.77621-2.4442 1.6679-0.4005 0.80784-1.0442 1.7848-1.4305 2.1709-0.386 0.38617-0.702 1.2853-0.702 1.998 0 0.71275-0.5664 1.6496-1.2585 2.0819-0.6922 0.43228-1.2586 1.1736-1.2586 1.6474 0 0.47383-0.4247 1.214-0.9438 1.6448-0.5191 0.43084-0.9439 1.4263-0.9439 2.2121 0 0.78581-0.4247 1.5917-0.9439 1.791-0.5403 0.20732-0.9438 1.1465-0.9438 2.1963 0 1.2691-0.3663 1.9299-1.1889 2.145-0.8876 0.23213-1.3011 1.1275-1.6321 3.5343-0.2439 1.7729-0.71 3.2234-1.0359 3.2234-0.9033 0-2.9711 5.283-3.4342 8.7737-0.2305 1.7378-0.7942 3.2525-1.2798 3.4388-0.4774 0.18317-0.8679 0.77663-0.8679 1.3188s-0.3976 1.6129-0.8834 2.3794c-0.486 0.76652-1.0733 2.5749-1.3055 4.0187s-0.8257 2.7799-1.319 2.9692c-0.498 0.1911-0.8969 1.176-0.8969 2.2145 0 1.0287-0.2832 2.0454-0.6292 2.2593-0.3462 0.21389-0.6293 1.0839-0.6293 1.9334s-0.2832 2.107-0.6293 2.7945l-1.2584 2.4999c-0.3462 0.68749-0.6293 1.829-0.6293 2.5368 0 0.70773-0.4247 1.4498-0.9438 1.649-0.5192 0.19921-0.9439 0.80734-0.9439 1.3514 0 1.0854-1.1233 4.8984-1.9126 6.492-0.2747 0.55479-0.697 2.3246-0.9381 3.9328-0.2793 1.8624-0.7553 2.9241-1.311 2.9241-0.5715 0-0.8723 0.733-0.8723 2.1253 0 1.1689-0.4109 2.4663-0.9131 2.8831-0.5021 0.41676-1.1042 2.0796-1.3379 3.6952-0.2336 1.6156-0.6821 3.2615-0.9964 3.6574-0.3145 0.39596-0.7429 2.1657-0.9522 3.9328s-0.6242 3.2129-0.9222 3.2129c-0.2979 0-0.5416 0.78137-0.5416 1.7364 0 1.0318-0.491 2.0431-1.21 2.4921-0.8451 0.52773-1.3416 1.8074-1.6457 4.2415-0.2396 1.9172-0.6861 3.4858-0.9923 3.4858-0.3061 0-0.5567 0.47544-0.5567 1.0565 0 1.1828-1.1209 4.9726-1.965 6.6433-0.3036 0.60096-0.552 1.6325-0.552 2.2924 0 0.65985-0.4022 1.354-0.8938 1.5427-0.5393 0.207-1.0661 1.723-1.3286 3.824-0.2393 1.9146-0.8059 3.789-1.2595 4.1654-0.4534 0.37636-1.013 1.8714-1.2433 3.3224-0.4647 2.9264-2.1965 7.3575-2.8755 7.3575-0.2402 0-0.5872 0.7787-0.771 1.7304-0.1838 0.95174-0.67 2.8631-1.0804 4.2475s-1.0609 4.0036-1.4456 5.8206-0.9152 3.3036-1.1787 3.3036c-0.8745 0-2.8993 4.9743-3.3457 8.2194-0.2498 1.8166-0.8189 3.3422-1.3183 3.5338-0.4833 0.18545-0.8787 0.98012-0.8787 1.7659 0 0.78583-0.3888 1.7515-0.8642 2.146-0.4753 0.3945-1.0515 2.1282-1.2802 3.8526-0.2846 2.1455-0.7071 3.1353-1.3381 3.1353-0.6011 0-0.9223 0.64444-0.9223 1.8506 0 1.0178-0.2831 2.0256-0.6292 2.2395-0.346 0.2139-0.6292 1.0634-0.6292 1.8878 0 0.82437-0.2832 1.6739-0.6293 1.8878s-0.6292 1.2217-0.6292 2.2395c0 1.2255-0.3189 1.8506-0.9439 1.8506-0.617 0-0.9439 0.6176-0.9439 1.7829 0 0.98058-0.1941 1.9769-0.4312 2.2141-0.6107 0.61068-2.0649 4.926-2.0763 6.161-0.01 0.56864-0.4342 1.1969-0.9533 1.3961-0.5192 0.19922-0.9439 1.079-0.9439 1.9551 0 0.87608-0.2832 1.5929-0.6293 1.5929s-0.6293 0.64497-0.6293 1.4333c0 0.7883-0.5247 1.8826-1.1661 2.4318-0.7018 0.6009-1.3369 2.2852-1.5948 4.23-0.2951 2.2242-0.7162 3.2315-1.3508 3.2315-0.6011 0-0.9223 0.64445-0.9223 1.8506 0 1.0178-0.2832 2.0256-0.6292 2.2395-0.3461 0.21388-0.6292 0.92854-0.6292 1.5881 0 0.65957-0.5328 1.4843-1.1839 1.8328-0.8347 0.44674-1.3103 1.6462-1.6128 4.0682-0.2361 1.8891-0.8524 3.7859-1.3696 4.2152-1.1087 0.92011-2.7555 4.6488-2.7555 6.2389 0 0.61288-0.4248 1.2773-0.9439 1.4765-0.5192 0.19921-0.9439 1.046-0.9439 1.8817 0 0.99028-0.4383 1.6341-1.2585 1.8486-0.8429 0.22042-1.2585 0.85831-1.2585 1.9315 0 1.8609-1.2191 4.8079-1.9888 4.8079-0.2905 0-0.5283 0.95805-0.5283 2.129 0 1.5998-0.3128 2.2108-1.2584 2.4581-0.7216 0.18868-1.2586 0.85829-1.2586 1.5695 0 0.6822-0.4061 1.5775-0.9026 1.9895-0.9904 0.82188-3.5021 5.3734-3.5021 6.3461 0 0.33544-0.5664 1.1762-1.2584 1.8684-0.6923 0.69219-1.2586 1.6833-1.2586 2.2024 0 0.51912-0.2832 0.94388-0.6292 0.94388-0.3461 0-0.6292 0.78233-0.6292 1.7385 0 1.1994-0.4391 1.9312-1.4159 2.3597-0.875 0.3839-1.4919 1.2821-1.6149 2.3516-0.1096 0.95175-0.4444 1.7304-0.7442 1.7304s-0.7404 0.61535-0.9791 1.3674c-0.2387 0.75209-0.9657 1.9381-1.6154 2.6357-0.6499 0.69753-1.1816 1.7509-1.1816 2.3407 0 0.58989-0.4248 1.2355-0.944 1.4347-0.5191 0.19921-0.9438 0.81605-0.9438 1.3708 0 0.55472-0.4248 1.4333-0.9439 1.9525-0.5191 0.51914-0.9439 1.6316-0.9439 2.4721 0 0.93015-0.3646 1.5282-0.9318 1.5282-0.5126 0-1.0944 0.64745-1.293 1.4388-0.1987 0.79133-0.9827 1.7116-1.7425 2.0451-0.7597 0.33346-1.4691 1.2229-1.5763 1.9764-0.1074 0.75357-0.6029 1.7085-1.1013 2.1221s-0.906 1.4252-0.906 2.2481c0 1.0548-0.3558 1.4961-1.2058 1.4961-0.7346 0-1.5324 0.73773-2.0415 1.8878-0.4706 1.0635-1.3179 1.8878-1.9404 1.8878-0.8023 0-1.1049 0.50495-1.1049 1.844 0 1.4332-0.3153 1.8888-1.4158 2.0451-0.7787 0.1106-1.6751 0.79127-1.992 1.5126-0.317 0.72133-1.1664 1.5708-1.8878 1.8878-0.774 0.34007-1.3931 1.2854-1.5106 2.3067-0.1417 1.231-0.5549 1.7304-1.4316 1.7304-0.8463 0-1.3428 0.55185-1.5847 1.7615-0.1947 0.97341-0.9619 2.0292-1.7147 2.3597-0.7493 0.32898-1.4507 1.2186-1.5587 1.977-0.1477 1.038-0.6922 1.4269-2.2024 1.5731-1.7463 0.16913-2.0313 0.45434-2.2005 2.2022-0.1693 1.7484-0.454 2.0331-2.2023 2.2024-1.5299 0.14813-2.056 0.53152-2.2091 1.6102-0.1568 1.1035-0.6113 1.4158-2.0608 1.4158-1.563 0-1.9199 0.30124-2.2374 1.8878-0.3066 1.533-0.6938 1.8878-2.0607 1.8878-2.0658 0-3.1935 1.0444-3.1935 2.9575 0 1.2705-0.3093 1.4473-2.5326 1.4473-2.3013 0-2.5668 0.16969-2.9041 1.8562-0.3395 1.6979-0.6201 1.8724-3.2877 2.0451-2.4767 0.16035-2.9471 0.40242-3.1177 1.6047-0.1597 1.124-0.6135 1.4199-2.2025 1.4358-2.3047 0.0231-4.2036 1.2404-4.2036 2.6949 0 0.80049-0.8579 1.0406-4.2475 1.1891l-4.2475 0.18606-0.1971 2.0451-0.1972 2.0451h-5.3088-5.3087v1.8671 1.8672l-7.0792 0.17792c-6.8 0.17091-7.087 0.23373-7.2801 1.5937l-0.2011 1.4158h-13.44c-14.324 0-15.418 0.22587-15.418 3.182 0 1.1561-0.763 1.211-19.035 1.3709l-19.035 0.16653-0.1918 2.989-0.1919 2.989h130.85c130.32 0 130.85-0.005 131.17-1.2585z" stroke="#444649" stroke-linecap="round" stroke-width="2.219"/>
  <g stroke="#000" stroke-width="1.9">
   <path id="path4902" d="m211.53 577.33v8.0812"/>
   <path id="path4902-6" d="m338.75 576.76v8.0812"/>
   <path id="path4902-3" d="m468.05 577.27v8.0812"/>
   <path id="path4902-9" d="m596.34 577.27v8.0812"/>
   <path id="path4902-7" d="m724.37 577.77v8.0812"/>
  </g>
 </g>
 <g font-size="40px" font-family="sans-serif" fill="#000000">
  <text id="text4948" style="word-spacing:0px;letter-spacing:0px" xml:space="preserve" y="634.31976" x="184.19295" line-height="125%"><tspan id="tspan4950" x="184.19295" y="634.31976">-10</tspan></text>
  <text id="text4948-7" style="word-spacing:0px;letter-spacing:0px" xml:space="preserve" y="631.69873" x="326.94864" line-height="125%"><tspan id="tspan4950-5" x="326.94864" y="631.69873">0</tspan></text>
  <text id="text4948-3" style="word-spacing:0px;letter-spacing:0px" xml:space="preserve" y="633.73938" x="451.35986" line-height="125%"><tspan id="tspan4950-2" x="451.35986" y="633.73938">10</tspan></text>
  <text id="text4948-9" style="word-spacing:0px;letter-spacing:0px" xml:space="preserve" y="633.71906" x="579.79138" line-height="125%"><tspan id="tspan4950-9" x="579.79138" y="633.71906">20</tspan></text>
  <text id="text4948-4" style="word-spacing:0px;letter-spacing:0px" xml:space="preserve" y="631.67847" x="707.89801" line-height="125%"><tspan id="tspan4950-52" x="707.89801" y="631.67847">30</tspan></text>
  <text id="text4948-7-7" style="word-spacing:0px;letter-spacing:0px" xml:space="preserve" y="579.17084" x="109.83926" line-height="125%"><tspan id="tspan4950-5-9" x="109.83926" y="579.17084">0</tspan></text>
  <text id="text4948-7-2" style="word-spacing:0px;letter-spacing:0px" xml:space="preserve" y="197.33315" x="110.84943" line-height="125%"><tspan id="tspan4950-5-6" x="110.84943" y="197.33315">1</tspan></text>
 </g>
 <g stroke="#000" stroke-width="1.6" fill="none">
  <path id="path5020" d="m158.32 560.89h-9.8214"/>
  <path id="path5020-6" d="m158.77 484.46h-9.8214"/>
  <path id="path5020-7" d="m158.41 408.75h-9.8214"/>
  <path id="path5020-3" d="m158.05 332.32h-9.8214"/>
  <path id="path5020-4" d="m158.98 255.71h-9.8214"/>
  <path id="path5020-45" d="m158.27 179.29h-9.8214"/>
 </g>
</svg>
