<?xml version="1.0" encoding="UTF-8" standalone="no"?>
<!-- Created with Inkscape (http://www.inkscape.org/) -->

<svg
   xmlns:dc="http://purl.org/dc/elements/1.1/"
   xmlns:cc="http://creativecommons.org/ns#"
   xmlns:rdf="http://www.w3.org/1999/02/22-rdf-syntax-ns#"
   xmlns:svg="http://www.w3.org/2000/svg"
   xmlns="http://www.w3.org/2000/svg"
   xmlns:sodipodi="http://sodipodi.sourceforge.net/DTD/sodipodi-0.dtd"
   xmlns:inkscape="http://www.inkscape.org/namespaces/inkscape"
   width="900"
   height="700"
   viewBox="0 0 900.00001 700.00001"
   id="svg2"
   version="1.1"
   inkscape:version="0.91 r13725"
   sodipodi:docname="example_dependence_2.svg">
  <defs
     id="defs4" />
  <sodipodi:namedview
     id="base"
     pagecolor="#ffffff"
     bordercolor="#666666"
     borderopacity="1.0"
     inkscape:pageopacity="0.0"
     inkscape:pageshadow="2"
     inkscape:zoom="0.24748738"
     inkscape:cx="1210.4273"
     inkscape:cy="766.86126"
     inkscape:document-units="px"
     inkscape:current-layer="svg2"
     showgrid="false"
     units="px"
     inkscape:window-width="1920"
     inkscape:window-height="1017"
     inkscape:window-x="-8"
     inkscape:window-y="-8"
     inkscape:window-maximized="1" />
  <metadata
     id="metadata7">
    <rdf:RDF>
      <cc:Work
         rdf:about="">
        <dc:format>image/svg+xml</dc:format>
        <dc:type
           rdf:resource="http://purl.org/dc/dcmitype/StillImage" />
        <dc:title></dc:title>
      </cc:Work>
    </rdf:RDF>
  </metadata>
  <path
     style="opacity:1;fill:none;fill-opacity:1;stroke:#ff4649;stroke-width:0.90600002;stroke-linecap:round;stroke-linejoin:round;stroke-miterlimit:4;stroke-dasharray:none;stroke-dashoffset:0;stroke-opacity:1"
     d="m 158.68226,371.26055 0,-205.5179 298.3086,0 298.30858,0 0,205.5179 0,205.51788 -298.30858,0 -298.3086,0 0,-205.51788 z m 160.3846,190.64007 0.1545,-1.34074 7.2294,-0.13604 7.2293,-0.13605 0.4638,-2.09211 0.4637,-2.0921 4.5819,0 4.5819,0 0,-2.21513 0,-2.21517 3.692,0 c 3.6099,0 3.692,-0.0275 3.692,-1.23065 0,-1.12844 0.182,-1.23066 2.1919,-1.23066 3.3402,0 4.6997,-0.80604 4.6997,-2.78644 0,-1.6088 0.046,-1.64385 2.1166,-1.64385 2.4558,0 3.2982,-0.64665 3.2982,-2.53147 0,-1.23635 0.1762,-1.36277 2.092,-1.50136 1.9551,-0.14146 2.1022,-0.25435 2.2442,-1.72222 0.1325,-1.36769 0.3553,-1.59047 1.7229,-1.72287 1.2187,-0.118 1.7365,-0.50849 2.3092,-1.7413 0.5998,-1.29059 1.0283,-1.59119 2.2809,-1.59984 1.6047,-0.0114 2.1276,-0.8245 2.1427,-3.33339 0.01,-0.89184 0.2842,-1.10759 1.4309,-1.10759 1.5496,0 2.0218,-0.69911 2.0218,-2.99383 0,-1.17077 0.2093,-1.43652 1.1321,-1.43652 1.3443,0 2.3136,-0.85181 2.3136,-2.0332 0,-0.50863 0.4463,-0.91524 1.1076,-1.00915 0.9207,-0.13079 1.1331,-0.51026 1.2589,-2.2494 0.1457,-2.0129 0.2137,-2.09211 1.7934,-2.09211 1.6769,0 2.2395,-0.62845 2.2395,-2.50157 0,-0.5193 0.3323,-0.94424 0.7384,-0.94424 0.5156,0 0.7384,-0.51961 0.7384,-1.72288 0,-1.41453 0.1825,-1.72291 1.0196,-1.72291 1.4414,0 2.4262,-1.16128 2.4262,-2.86098 0,-1.04214 0.28,-1.52776 0.9878,-1.71283 0.6128,-0.16029 1.1013,-0.82572 1.2866,-1.75305 0.2308,-1.15371 0.5951,-1.529 1.5967,-1.64504 1.1462,-0.13285 1.3153,-0.39447 1.449,-2.24246 0.1219,-1.68599 0.3356,-2.0921 1.1009,-2.0921 0.6201,0 1.1995,-0.59807 1.6696,-1.72292 0.3958,-0.9476 0.9526,-1.72292 1.2372,-1.72292 0.2845,0 0.5173,-0.88603 0.5173,-1.96903 0,-1.60374 0.1729,-1.969 0.932,-1.969 1.061,0 1.5293,-0.91687 1.5293,-2.99383 0,-1.10832 0.225,-1.43652 0.9846,-1.43652 0.7182,0 0.9845,-0.32819 0.9845,-1.21335 0,-0.70947 0.4088,-1.43208 0.9845,-1.7402 0.6723,-0.35981 0.9845,-1.03071 0.9845,-2.11576 0,-1.17554 0.2881,-1.71525 1.1076,-2.07475 0.7012,-0.30765 1.1667,-1.00312 1.2688,-1.8957 0.1019,-0.89139 0.5091,-1.50077 1.1075,-1.65727 0.7199,-0.18827 0.9464,-0.68607 0.9464,-2.08006 0,-1.47708 0.2388,-1.94141 1.2306,-2.39336 0.6769,-0.30837 1.2307,-0.95522 1.2307,-1.43734 0,-0.48219 0.4431,-1.15336 0.9845,-1.49154 0.6791,-0.42412 0.9845,-1.14795 0.9845,-2.33357 0,-1.18124 0.2255,-1.71874 0.7211,-1.71874 0.901,0 1.7403,-1.5134 1.7403,-3.13822 0,-0.67871 0.2215,-1.37089 0.4922,-1.5382 0.2707,-0.16736 0.4923,-0.79169 0.4923,-1.38744 0,-0.59576 0.443,-1.35987 0.9845,-1.69804 0.6791,-0.42412 0.9845,-1.14796 0.9845,-2.33357 0,-1.21034 0.2215,-1.71873 0.7489,-1.71873 0.4119,0 0.9896,-0.60918 1.2836,-1.35372 0.2941,-0.74453 0.7324,-1.73835 0.974,-2.20849 0.2417,-0.47008 0.4393,-1.63308 0.4393,-2.58432 0,-1.4014 0.1867,-1.72959 0.9845,-1.72959 0.797,0 0.9845,-0.32819 0.9845,-1.72292 0,-0.9476 0.2374,-1.72291 0.5275,-1.72291 0.9316,0 1.9339,-1.36984 1.9339,-2.64317 0,-0.68023 0.2214,-1.37368 0.4922,-1.541 0.2708,-0.16731 0.4923,-1.04062 0.4923,-1.94066 0,-1.22245 0.249,-1.70158 0.9844,-1.89392 0.6653,-0.17396 0.9845,-0.67143 0.9845,-1.53416 0,-0.7022 0.2375,-1.27678 0.5275,-1.27678 0.9313,0 1.7947,-1.22873 2.091,-2.97579 0.6777,-3.99619 0.9769,-4.90033 1.6216,-4.90033 0.4636,0 0.6826,-0.60731 0.6826,-1.89274 0,-1.26757 0.3252,-2.18699 0.9844,-2.78369 0.5416,-0.49005 0.9847,-1.33066 0.9847,-1.868 0,-0.53735 0.3444,-1.22888 0.7653,-1.53671 0.836,-0.61131 1.6656,-3.57564 1.6842,-6.01791 0.01,-1.23178 0.2605,-1.60894 1.2348,-1.85345 0.8176,-0.20523 1.3172,-0.75333 1.5065,-1.65325 0.1559,-0.7404 0.4916,-1.73083 0.746,-2.20096 0.2543,-0.47014 0.4625,-1.41158 0.4625,-2.09211 0,-0.77167 0.2778,-1.23734 0.7383,-1.23734 0.547,0 0.7384,-0.57427 0.7384,-2.21512 0,-1.21836 0.2174,-2.21518 0.4829,-2.21518 0.2656,0 0.6232,-0.55897 0.7947,-1.24215 0.1714,-0.68318 0.753,-1.55117 1.2924,-1.92893 0.704,-0.49319 1.1353,-1.6698 1.5294,-4.17271 0.4171,-2.64868 0.7391,-3.48589 1.3413,-3.48589 0.8357,0 1.6952,-1.39123 2.1287,-3.44582 0.7285,-3.45213 0.9972,-4.21638 1.6092,-4.57785 0.3666,-0.21649 0.6736,-0.9918 0.6823,-1.72292 0.01,-0.73106 0.3408,-1.75924 0.7383,-2.28479 0.3975,-0.52555 0.7228,-1.55192 0.7228,-2.28081 0,-0.91127 0.3075,-1.40569 0.9845,-1.58274 0.7168,-0.18743 0.9845,-0.67142 0.9845,-1.78029 0,-0.83756 0.2215,-1.52285 0.4923,-1.52285 0.2707,0 0.4922,-0.88609 0.4922,-1.96904 0,-1.63457 0.1657,-1.96904 0.9752,-1.96904 0.6664,0 1.0654,-0.4285 1.2603,-1.35373 0.1569,-0.74453 0.4934,-1.73834 0.7479,-2.20848 0.2543,-0.47014 0.4624,-1.63308 0.4624,-2.58436 0,-1.40143 0.1869,-1.72957 0.9845,-1.72957 0.7938,0 0.9846,-0.32818 0.9846,-1.69385 0,-0.93162 0.2215,-1.83078 0.4922,-1.9981 0.2708,-0.16731 0.4922,-0.90314 0.4922,-1.63519 0,-0.90817 0.3521,-1.48539 1.1077,-1.81692 0.7871,-0.34536 1.1533,-0.98433 1.2657,-2.20884 0.087,-0.94759 0.3639,-1.93334 0.6153,-2.19059 0.2515,-0.25719 0.4573,-0.97709 0.4573,-1.5998 0,-0.62274 0.2524,-1.13221 0.561,-1.13221 0.9355,0 1.868,-1.62975 1.8846,-3.2937 0.01,-0.86392 0.2371,-1.70767 0.5079,-1.875 0.2707,-0.16735 0.4922,-1.06647 0.4922,-1.99809 0,-1.36567 0.1908,-1.69387 0.9846,-1.69387 0.7969,0 0.9845,-0.32818 0.9845,-1.7229 0,-0.9476 0.2215,-1.72291 0.4921,-1.72291 0.2709,0 0.4923,-0.73785 0.4923,-1.63972 0,-1.24521 0.2961,-1.79814 1.2307,-2.29832 0.8487,-0.45421 1.2306,-1.07336 1.2306,-1.99481 0,-0.92218 0.3051,-1.41596 0.9846,-1.59365 0.7822,-0.20458 0.9845,-0.67142 0.9845,-2.27255 0,-1.10833 0.1998,-2.01516 0.4441,-2.01516 0.2442,0 0.6768,-0.66744 0.9611,-1.48322 0.2844,-0.81584 0.8599,-1.61485 1.2789,-1.77563 0.4803,-0.18432 0.7617,-0.9092 0.7617,-1.9625 0,-1.09947 0.2343,-1.67025 0.6857,-1.67025 0.7874,0 1.2833,-1.04623 1.2833,-2.70778 0,-1.40746 1.4149,-4.18038 2.5844,-5.0649 0.5274,-0.39895 0.8614,-1.30863 0.8614,-2.34655 0,-1.11372 0.2331,-1.69498 0.68,-1.69498 0.395,0 0.9136,-0.92813 1.2377,-2.21518 0.3068,-1.21831 0.7761,-2.21512 1.0429,-2.21512 0.2669,0 0.4852,-0.74951 0.4852,-1.66548 0,-1.2515 0.2447,-1.72951 0.9845,-1.92298 0.7169,-0.18747 0.9845,-0.67143 0.9845,-1.78034 0,-0.83756 0.2158,-1.52285 0.4797,-1.52285 0.2637,0 0.8505,-0.71991 1.3038,-1.59985 0.4535,-0.87989 1.2345,-1.88929 1.7357,-2.24305 0.5858,-0.41354 0.9112,-1.24855 0.9112,-2.33823 0,-1.17849 0.225,-1.69499 0.7384,-1.69499 0.4923,0 0.7384,-0.49226 0.7384,-1.47678 0,-0.81224 0.2594,-1.47679 0.5765,-1.47679 1.0951,0 2.377,-1.63397 2.377,-3.02982 0,-0.91672 0.2551,-1.40048 0.7384,-1.40048 0.5469,0 0.7383,-0.57431 0.7383,-2.21517 0,-1.72478 0.1787,-2.21517 0.8072,-2.21517 0.9664,0 2.109,-1.38587 2.1308,-2.58437 0.01,-0.47378 0.3479,-0.86141 0.7541,-0.86141 0.5193,0 0.7383,-0.52476 0.7383,-1.76903 0,-1.35549 0.2303,-1.82922 0.9853,-2.02667 0.588,-0.15369 1.1455,-0.87979 1.3822,-1.79985 0.3044,-1.18296 0.7055,-1.57851 1.7221,-1.69799 1.2161,-0.14293 1.3251,-0.33547 1.3251,-2.33824 0,-1.86009 0.1467,-2.18243 0.9926,-2.18243 0.6496,0 1.2763,-0.59526 1.8141,-1.72291 0.4519,-0.9476 1.0021,-1.72291 1.2227,-1.72291 0.2206,0 0.4011,-0.77531 0.4011,-1.72291 0,-1.46964 0.1664,-1.7229 1.1322,-1.7229 1.5722,0 2.3137,-0.89907 2.3137,-2.80588 0,-1.47677 0.1341,-1.62444 1.4766,-1.62444 1.3545,0 1.4769,-0.14021 1.4769,-1.69172 0,-1.54879 0.1351,-1.70475 1.5998,-1.84597 1.4606,-0.14083 1.6132,-0.31494 1.7526,-2.00022 0.1273,-1.53816 0.3366,-1.84597 1.2553,-1.84597 1.4148,0 2.2839,-0.88038 2.2839,-2.31362 0,-0.92982 0.2639,-1.13219 1.4768,-1.13219 1.4221,0 1.4767,-0.0821 1.4767,-2.21517 0,-2.20343 0.01,-2.21516 1.7229,-2.21516 1.6408,0 1.7229,-0.0821 1.7229,-1.7229 0,-1.54757 0.1378,-1.7245 1.3537,-1.73856 1.7501,-0.0202 3.0767,-1.04501 3.0767,-2.37684 0,-0.8526 0.2945,-1.05332 1.5455,-1.05332 1.7971,0 2.8466,-1.12536 2.8691,-3.07661 0.013,-1.18602 0.2072,-1.35371 1.5612,-1.35371 1.6263,0 2.8421,-1.09515 2.869,-2.58436 0.013,-0.68176 0.4521,-0.86285 2.1079,-0.86818 3.5972,-0.0116 4.3073,-0.38511 4.3073,-2.26585 0,-1.63426 0.04,-1.66549 2.1167,-1.66549 2.5403,0 3.2981,-0.64467 3.2981,-2.80587 l 0,-1.62445 3.4458,0 3.4458,0 0,-1.72291 0,-1.72291 4.9226,0 4.9225,0 0,-1.72291 0,-1.7229 5.7841,-0.0156 c 6.3462,-0.0172 7.507,-0.42119 7.507,-2.61298 l 0,-1.28945 10.2144,-0.13306 10.2143,-0.13305 0.1512,-2.09009 0.1513,-2.09008 58.1814,-0.12508 58.18129,-0.12508 0,-2.70742 0,-2.70742 -70.09429,-0.12475 c -51.3947,-0.0915 -70.2725,0.0231 -70.7621,0.42947 -0.3674,0.30482 -0.6679,0.97013 -0.6679,1.47846 0,0.85631 -0.4659,0.92424 -6.339,0.92424 -6.8647,0 -7.2332,0.13259 -7.5237,2.70742 l -0.1666,1.47678 -4.1597,0.14457 c -4.4956,0.15623 -5.4394,0.56863 -5.4394,2.377 0,1.13436 -0.1206,1.17037 -3.9207,1.17037 -4.2689,0 -4.9399,0.43024 -4.9399,3.16732 0,1.16002 -0.1726,1.263 -2.1167,1.263 -2.2677,0 -3.2981,0.64595 -3.2981,2.0675 0,0.68759 -0.3933,0.88606 -1.7553,0.88606 -2.5459,0 -3.6596,0.75429 -3.6596,2.47861 0,1.35275 -0.1321,1.45946 -1.8072,1.45946 -2.216,0 -3.6077,1.16874 -3.6077,3.02985 0,1.26582 -0.1617,1.40048 -1.6815,1.40048 -1.3952,0 -1.7931,0.25167 -2.3355,1.47677 -0.3594,0.81223 -0.9192,1.47678 -1.2439,1.47678 -0.8373,0 -2.1229,1.98604 -2.1229,3.2795 0,0.90583 -0.3139,1.11737 -1.846,1.24417 -1.6056,0.13289 -1.9073,0.36105 -2.3169,1.75262 -0.3212,1.09073 -0.7739,1.59984 -1.4226,1.59984 -1.2392,0 -2.2554,1.37406 -2.275,3.07661 -0.013,1.11162 -0.2357,1.35371 -1.2463,1.35371 -1.1019,0 -1.2307,0.20047 -1.2307,1.91568 0,1.61602 -0.1863,1.96243 -1.1914,2.21469 -0.8146,0.20444 -1.2941,0.76633 -1.5159,1.77628 -0.251,1.14282 -0.5929,1.47723 -1.5102,1.47723 -0.9999,0 -1.2343,0.30426 -1.4964,1.94282 -0.2614,1.63511 -0.5353,1.99215 -1.7286,2.25428 -1.0817,0.23757 -1.4181,0.59144 -1.4181,1.49164 0,0.71566 -0.4844,1.49757 -1.2306,1.98654 -0.7992,0.52362 -1.2307,1.26276 -1.2307,2.10809 0,0.76864 -0.4032,1.55356 -0.9845,1.9166 -0.6791,0.42412 -0.9845,1.14795 -0.9845,2.33356 0,1.4653 -0.167,1.71875 -1.1323,1.71875 -1.4243,0 -2.3136,0.86727 -2.3136,2.25619 0,0.66079 -0.3792,1.17395 -0.9844,1.33224 -0.7464,0.19519 -0.9846,0.67147 -0.9846,1.96903 0,1.26561 -0.2429,1.77509 -0.9322,1.95539 -0.5429,0.14199 -1.0687,0.86459 -1.2588,1.73023 -0.1938,0.88275 -0.715,1.58804 -1.2829,1.73658 -0.7505,0.19628 -0.9564,0.68387 -0.9564,2.26522 0,1.68692 -0.1603,2.01511 -0.9845,2.01511 -0.747,0 -0.9845,0.32819 -0.9845,1.36006 0,0.93826 -0.3435,1.51076 -1.1076,1.84597 -0.7152,0.3138 -1.1664,1.00326 -1.2737,1.94648 -0.091,0.8033 -0.5896,1.75728 -1.1076,2.11999 -0.6172,0.43233 -0.9415,1.24329 -0.9415,2.35446 0,0.93226 -0.2373,1.69499 -0.5275,1.69499 -0.9393,0 -1.9338,1.37422 -1.9338,2.67228 0,0.69616 -0.2215,1.26581 -0.4922,1.26581 -0.2707,0 -0.4922,0.72201 -0.4922,1.60447 0,1.0714 -0.3273,1.8088 -0.9846,2.21935 -0.5566,0.34756 -0.9845,1.14795 -0.9845,1.84131 0,0.67457 -0.2373,1.22647 -0.5275,1.22647 -0.9862,0 -1.9338,1.4019 -1.9338,2.86098 0,1.04052 -0.2802,1.52782 -0.9845,1.712 -0.7793,0.20375 -0.9845,0.67143 -0.9845,2.2435 0,1.09234 -0.2216,2.12298 -0.4923,2.29029 -0.2708,0.16732 -0.4923,0.79243 -0.4923,1.38912 0,0.65289 -0.4409,1.27835 -1.1076,1.5708 -0.7595,0.33325 -1.1559,0.9883 -1.2618,2.08507 -0.089,0.92547 -0.5324,1.80168 -1.0522,2.07986 -0.494,0.26432 -1.0233,1.20607 -1.1762,2.09276 -0.6477,3.75572 -0.955,4.81177 -1.4003,4.81177 -0.8784,0 -1.7455,1.26788 -2.0352,2.97584 -0.6507,3.83829 -0.9638,4.90029 -1.4442,4.90029 -0.763,0 -1.811,1.5877 -1.8287,2.77047 -0.01,0.57613 -0.4646,1.35145 -1.0133,1.72291 -0.772,0.52264 -1.0663,1.42648 -1.3018,3.99807 -0.2443,2.66835 -0.4678,3.32276 -1.1343,3.32276 -0.4567,0 -1.0616,0.4984 -1.3445,1.10758 -1.123,2.41952 -1.6211,3.90589 -1.6211,4.83814 0,0.53725 -0.3323,1.1043 -0.7384,1.26015 -0.4648,0.17833 -0.7442,0.9479 -0.754,2.07663 -0.01,0.98633 -0.3409,2.22328 -0.7385,2.74883 -0.3974,0.52555 -0.7227,1.34132 -0.7227,1.81284 0,0.47146 -0.4268,0.99268 -0.9484,1.15823 -0.893,0.28339 -2.0051,3.65158 -2.0051,6.07223 0,0.46394 -0.4983,1.0622 -1.1076,1.32948 -0.7796,0.342 -1.1554,0.98762 -1.2689,2.18016 -0.089,0.93187 -0.4763,2.14413 -0.8614,2.69391 -0.3851,0.54979 -0.7002,1.51106 -0.7002,2.13616 0,0.62512 -0.3322,1.2641 -0.7384,1.41991 -0.4208,0.1615 -0.7383,0.89572 -0.7383,1.70747 0,0.78329 -0.219,1.42413 -0.4865,1.42413 -0.2676,0 -0.6271,0.87978 -0.7991,1.95512 -0.2083,1.30273 -0.6208,2.05292 -1.2365,2.24831 -0.6672,0.21177 -0.9238,0.76253 -0.9238,1.98296 0,0.92936 -0.2215,1.68972 -0.4922,1.68972 -0.2708,0 -0.4923,0.74946 -0.4923,1.66549 0,1.20346 -0.2513,1.73123 -0.9061,1.90242 -0.959,0.2508 -2.5397,4.2561 -2.5397,6.43543 0,0.78978 -0.3386,1.29231 -0.9845,1.46125 -0.7822,0.20453 -0.9845,0.67142 -0.9845,2.27255 0,1.10832 -0.2215,2.01511 -0.4923,2.01511 -0.2707,0 -0.4922,0.61204 -0.4922,1.36006 0,0.93826 -0.3436,1.51076 -1.1076,1.84598 -0.7872,0.34535 -1.1534,0.98432 -1.2658,2.20882 -0.087,0.94761 -0.3639,1.93336 -0.6153,2.19055 -0.2514,0.25719 -0.4572,1.08792 -0.4572,1.84597 0,1.0217 -0.2398,1.37831 -0.9271,1.37831 -0.9445,0 -1.5148,1.24064 -1.5275,3.32276 -0.01,0.60918 -0.2282,1.10759 -0.499,1.10759 -0.2706,0 -0.4921,0.74945 -0.4921,1.66548 0,1.2515 -0.2447,1.7295 -0.9846,1.92298 -0.7117,0.1861 -0.9845,0.67142 -0.9845,1.75123 0,0.82163 -0.2215,1.63072 -0.4923,1.79804 -0.2706,0.16736 -0.4922,1.06648 -0.4922,1.9981 0,0.93162 -0.2373,1.69385 -0.5274,1.69385 -0.9317,0 -1.934,1.36985 -1.934,2.64322 0,0.68018 -0.2215,1.37364 -0.4921,1.541 -0.2708,0.16731 -0.4924,1.04062 -0.4924,1.94068 0,1.20375 -0.2516,1.70221 -0.9518,1.88536 -0.6281,0.16421 -1.0664,0.85835 -1.288,2.03979 -0.1859,0.99101 -0.7501,2.01245 -1.2632,2.28705 -0.5881,0.31472 -0.9273,1.0301 -0.9273,1.95572 0,0.8027 -0.2215,1.45948 -0.4922,1.45948 -0.2708,0 -0.4923,0.77526 -0.4923,1.72286 0,0.9476 -0.2209,1.72291 -0.491,1.72291 -0.6677,0 -2.9548,4.83101 -2.9548,6.24122 0,0.62389 -0.4431,1.411 -0.9845,1.74917 -0.5415,0.33817 -0.9845,1.11535 -0.9845,1.72709 0,0.61169 -0.2525,1.11221 -0.5611,1.11221 -0.8885,0 -1.8675,1.59837 -1.8845,3.07663 -0.01,0.82144 -0.2853,1.35372 -0.7014,1.35372 -0.7541,0 -1.2834,1.03482 -1.2834,2.50929 0,1.40731 -1.1606,4.87457 -1.6317,4.87457 -0.89,0 -1.814,1.48662 -1.814,2.91842 0,0.96411 -0.2484,1.51193 -0.6858,1.51193 -0.7527,0 -1.2833,1.03437 -1.2833,2.50151 0,0.51936 -0.2525,0.94426 -0.561,0.94426 -0.758,0 -1.8653,1.52128 -1.8846,2.58919 -0.01,0.47643 -0.4587,1.24559 -1.0002,1.70924 -0.5415,0.46365 -0.9845,1.4346 -0.9845,2.1577 0,0.72305 -0.2997,1.42963 -0.6658,1.57016 -0.596,0.22872 -1.9377,3.33066 -2.6065,6.02586 -0.1375,0.55406 -0.7312,1.2186 -1.3193,1.47678 -0.6475,0.28429 -1.1308,1.0035 -1.2252,1.82322 -0.086,0.74586 -0.46,1.35366 -0.8335,1.35366 -0.9195,0 -2.2104,1.93261 -2.2104,3.30924 0,0.66838 -0.2982,1.12111 -0.7384,1.12111 -0.5157,0 -0.7383,0.51959 -0.7383,1.72291 0,1.36228 -0.195,1.72291 -0.9319,1.72291 -0.9745,0 -1.5295,0.90601 -1.5295,2.49735 0,0.51708 -0.4429,1.21678 -0.9844,1.55496 -0.6575,0.41054 -0.9846,1.14794 -0.9846,2.21935 0,1.34605 -0.1823,1.60447 -1.1322,1.60447 -1.4568,0 -2.3136,0.87389 -2.3136,2.35967 0,0.7643 -0.3459,1.26876 -0.9845,1.43577 -0.7398,0.19343 -0.9845,0.67143 -0.9845,1.92294 0,1.25204 -0.2139,1.66936 -0.8615,1.68116 -1.2579,0.0226 -2.5843,1.18198 -2.5843,2.25844 0,0.5142 -0.443,1.21158 -0.9846,1.54971 -0.6791,0.42416 -0.9845,1.148 -0.9845,2.33356 0,1.46533 -0.1669,1.71878 -1.1321,1.71878 -1.504,0 -2.3136,0.88378 -2.3136,2.52547 0,1.01908 -0.2678,1.38213 -1.1077,1.50142 -0.6825,0.0969 -1.3908,0.76719 -1.8459,1.74646 -0.4061,0.87404 -1.0817,1.59399 -1.5014,1.59985 -1.2142,0.0168 -1.9444,1.06412 -1.9444,2.78821 0,1.5259 -0.092,1.60285 -2.0922,1.74755 -1.9555,0.14149 -2.1019,0.25395 -2.2443,1.72434 -0.1419,1.46636 -0.292,1.58307 -2.2152,1.72286 -1.931,0.14037 -2.0727,0.25222 -2.217,1.7498 -0.1232,1.27677 -0.3745,1.59985 -1.2442,1.59985 -1.7818,0 -3.2781,1.361 -3.2781,2.98144 0,1.296 -0.1631,1.44886 -1.5456,1.44886 -1.6262,0 -2.842,1.09515 -2.8691,2.58437 -0.012,0.67919 -0.4468,0.86145 -2.0534,0.86145 -2.2199,0 -3.3343,0.92981 -3.3614,2.80475 -0.013,0.95566 -0.3172,1.09922 -2.6001,1.23064 -2.372,0.13659 -2.6449,0.27938 -3.3227,1.73801 -0.715,1.53898 -0.835,1.58952 -3.7977,1.59985 -3.329,0.0118 -4.0783,0.59551 -4.0783,3.17796 l 0,1.263 -4.6543,0 -4.6541,0 -0.3206,1.70856 -0.3205,1.7086 -6.2242,0.13738 -6.2241,0.13737 -0.1529,1.84598 -0.1527,1.84598 -9.3556,0 c -5.5077,0 -9.7471,0.20959 -10.3077,0.50957 -0.6126,0.32789 -0.9521,1.02995 -0.9521,1.96903 l 0,1.45948 -57.3308,0 c -56.1775,0 -57.341,0.0192 -57.8404,0.95212 -0.5679,1.06123 -0.6924,4.60804 -0.1797,5.12075 0.1814,0.18143 31.8028,0.27372 70.2699,0.20508 l 69.94,-0.12473 0.1545,-1.34074 z"
     id="path4900"
     inkscape:connector-curvature="0" />
  <g
     inkscape:label="Layer 1"
     inkscape:groupmode="layer"
     id="layer1"
     transform="translate(0,-352.36216)" />
  <path
     style="opacity:1;fill:none;fill-opacity:1;stroke:#444649;stroke-width:2.2190001;stroke-linecap:round;stroke-linejoin:round;stroke-miterlimit:4;stroke-dasharray:none;stroke-dashoffset:0;stroke-opacity:1"
     d="m 158.97796,371.06874 0,-205.45074 297.9508,0 297.95077,0 0,205.45074 0,205.45073 -297.95077,0 -297.9508,0 0,-205.45073 z m 282.7164,190.97794 c 0.2336,-0.89274 0.8584,-1.25851 2.1499,-1.25851 2.1955,0 3.3312,-1.00824 3.3312,-2.95749 0,-0.92178 0.3746,-1.44728 1.0318,-1.44728 1.2352,0 2.6958,-1.77153 2.7236,-3.30357 0.012,-0.60565 0.3032,-1.10119 0.6494,-1.10119 0.346,0 0.6292,-0.70791 0.6292,-1.57312 0,-1.09537 0.3439,-1.57314 1.1326,-1.57314 1.5508,0 2.6429,-1.22208 2.6429,-2.95748 0,-0.82404 0.381,-1.44728 0.8848,-1.44728 0.5891,0 1.0353,-1.0937 1.335,-3.27319 0.3237,-2.35359 0.8707,-3.60393 1.9469,-4.45043 0.823,-0.64748 1.4965,-1.58144 1.4965,-2.07546 0,-0.494 0.2833,-0.8982 0.6293,-0.8982 0.3461,0 0.6292,-0.99107 0.6292,-2.20238 0,-1.21131 0.2832,-2.20238 0.6293,-2.20238 0.3461,0 0.6292,-0.96747 0.6292,-2.14995 0,-1.18247 0.2245,-2.24432 0.4988,-2.3597 1.1463,-0.48213 3.3064,-4.96998 3.6705,-7.62617 0.2832,-2.06594 0.7198,-2.94611 1.5722,-3.16902 0.8112,-0.21211 1.1803,-0.87811 1.1803,-2.12945 0,-1.00145 0.2638,-2.08983 0.5863,-2.41862 0.3226,-0.32877 0.9514,-2.93388 1.3975,-5.7891 0.6507,-4.16471 1.0241,-5.19134 1.8883,-5.19134 1.1478,0 1.4219,-0.57839 2.3857,-5.03401 1.8734,-8.66187 2.1207,-9.41688 3.1947,-9.75774 0.6424,-0.20392 1.2579,-1.20758 1.4576,-2.37671 0.7991,-4.68101 1.9082,-9.08613 2.8042,-11.13813 0.9709,-2.22338 1.8479,-5.20525 2.4549,-8.34732 0.1836,-0.95175 0.5852,-1.73045 0.892,-1.73045 0.3068,0 0.5668,-0.49554 0.5778,-1.10118 0.011,-0.60566 0.4358,-1.65085 0.9439,-2.32266 0.5082,-0.6718 0.9239,-2.01683 0.9239,-2.98894 0,-0.97212 0.2658,-1.76749 0.5907,-1.76749 0.3249,0 0.7641,-1.34502 0.9761,-2.98895 0.2119,-1.64391 0.6541,-3.48064 0.9824,-4.08159 0.3283,-0.60096 0.597,-1.59472 0.597,-2.20834 0,-0.61362 0.5476,-1.45764 1.2168,-1.87561 0.7917,-0.49436 1.3691,-1.81173 1.6526,-3.76956 0.2396,-1.6553 0.651,-3.29279 0.9144,-3.63888 0.2633,-0.34609 0.6696,-1.90349 0.9029,-3.46088 0.5618,-3.75122 1.6196,-6.43429 2.9058,-7.37045 0.5947,-0.4328 1.2227,-2.07513 1.4506,-3.79291 0.2211,-1.66629 0.9669,-4.57519 1.6573,-6.46421 0.6905,-1.88904 1.2554,-3.93413 1.2554,-4.54467 0,-0.61055 0.4247,-1.11008 0.9439,-1.11008 0.5813,0 0.9439,-0.59017 0.9439,-1.536 0,-0.84479 0.2701,-1.70291 0.6001,-1.90692 0.3302,-0.20401 0.7935,-2.07973 1.0298,-4.16824 0.2364,-2.08853 0.8157,-4.1834 1.2876,-4.65528 0.4719,-0.47187 0.8579,-1.17024 0.8579,-1.55191 0,-0.38167 0.3945,-0.84531 0.8766,-1.03031 0.5135,-0.19704 1.0499,-1.72355 1.295,-3.68539 0.2301,-1.84197 0.8178,-3.87623 1.3059,-4.52059 0.488,-0.64437 0.8963,-1.63681 0.9073,-2.20543 0.011,-0.56863 0.4094,-1.18326 0.8852,-1.36585 0.5071,-0.19461 1.0461,-1.78059 1.3025,-3.83291 0.2406,-1.92551 0.7008,-3.6637 1.0227,-3.86262 0.3218,-0.19892 0.5852,-1.16143 0.5852,-2.13891 0,-1.23328 0.3758,-1.87551 1.2279,-2.09834 0.9365,-0.2449 1.3296,-1.08724 1.6561,-3.5484 0.2355,-1.77501 0.6739,-3.37923 0.9744,-3.56492 0.3005,-0.18571 0.5463,-0.96072 0.5463,-1.72227 0,-0.76155 0.5376,-1.72038 1.1947,-2.13074 0.7867,-0.49129 1.3419,-1.81634 1.6257,-3.87973 0.2469,-1.79415 0.812,-3.27981 1.3223,-3.47564 0.4902,-0.18811 0.9003,-0.98803 0.9113,-1.7776 0.011,-0.78955 0.4358,-1.98522 0.9439,-2.65702 0.5081,-0.6718 0.9239,-1.70336 0.9239,-2.29237 0,-0.589 0.3892,-1.22026 0.8649,-1.40281 0.4758,-0.18255 1.0625,-1.64907 1.3039,-3.25895 0.2414,-1.60987 0.9848,-3.47295 1.6521,-4.14018 0.6672,-0.66723 1.2131,-1.90433 1.2131,-2.74913 0,-0.8448 0.2832,-1.71101 0.6293,-1.9249 0.346,-0.21389 0.6292,-0.90822 0.6292,-1.54294 0,-0.63472 0.3954,-1.30578 0.8787,-1.49122 0.4977,-0.19099 1.0674,-1.70996 1.3141,-3.50347 0.3205,-2.33038 0.7531,-3.26708 1.6384,-3.54806 0.8103,-0.25722 1.2028,-0.96184 1.2028,-2.1598 0,-0.99999 0.413,-1.93652 0.9439,-2.14023 0.5191,-0.19921 0.9529,-0.86662 0.9639,-1.48314 0.011,-0.61652 0.4357,-1.6706 0.9439,-2.3424 0.5081,-0.6718 0.9239,-1.74255 0.9239,-2.37944 0,-0.63689 0.4247,-1.32098 0.9438,-1.52018 0.5381,-0.20646 0.9438,-1.14495 0.9438,-2.18264 0,-1.19866 0.3225,-1.82043 0.9439,-1.82043 0.5192,0 0.9439,-0.47542 0.9439,-1.05652 0,-1.67496 1.4895,-5.50171 2.3563,-6.05383 0.4345,-0.27676 0.79,-1.19705 0.79,-2.04507 0,-0.95105 0.3617,-1.54186 0.9439,-1.54186 0.6592,0 0.9439,-0.66422 0.9439,-2.20238 0,-1.78288 0.2397,-2.20238 1.2585,-2.20238 0.9788,0 1.2585,-0.41951 1.2585,-1.88776 0,-1.25851 0.3145,-1.88776 0.9439,-1.88776 0.5872,0 0.9439,-0.59428 0.9439,-1.57313 0,-0.92514 0.361,-1.57312 0.8766,-1.57312 0.9621,0 1.6404,-1.32225 1.6404,-3.19773 0,-0.66386 0.4246,-1.20704 0.9438,-1.20704 0.5605,0 0.9439,-0.57748 0.9439,-1.42176 0,-0.78198 0.5663,-1.77545 1.2584,-2.20772 0.7115,-0.44431 1.2587,-1.46743 1.2587,-2.35374 0,-0.97411 0.3573,-1.5678 0.9437,-1.5678 0.6558,0 0.944,-0.65957 0.944,-2.16058 0,-1.88745 0.218,-2.18576 1.725,-2.3597 1.1368,-0.13121 1.8045,-0.62832 1.958,-1.45762 0.128,-0.69217 0.626,-1.48494 1.1064,-1.76171 0.4806,-0.27676 0.8738,-1.05545 0.8738,-1.73043 0,-0.67498 0.5663,-1.79357 1.2585,-2.48575 0.6922,-0.69217 1.2585,-1.68324 1.2585,-2.20238 0,-0.52437 0.5593,-0.94387 1.2585,-0.94387 1.0106,0 1.2585,-0.41951 1.2585,-2.12899 0,-1.59979 0.3129,-2.2108 1.2585,-2.4581 0.6922,-0.18101 1.2586,-0.71321 1.2586,-1.18268 0,-0.46947 0.6371,-1.1331 1.4158,-1.47472 0.8627,-0.37852 1.4921,-1.282 1.6111,-2.31283 0.1367,-1.18418 0.6087,-1.75048 1.5731,-1.88775 1.0434,-0.1485 1.4256,-0.6925 1.5749,-2.24116 0.1396,-1.44649 0.5172,-2.04507 1.2901,-2.04507 1.4137,0 2.6029,-1.20748 2.6029,-2.64286 0,-0.71315 0.4661,-1.13265 1.2586,-1.13265 0.9229,0 1.2584,-0.41951 1.2584,-1.57313 0,-1.22203 0.3231,-1.57313 1.4473,-1.57313 1.7355,0 2.9575,-1.09207 2.9575,-2.64286 0,-0.77515 0.4753,-1.13265 1.5058,-1.13265 1.5346,0 2.2698,-1.03583 2.2698,-3.19772 0,-0.92387 0.4465,-1.20704 1.9034,-1.20704 1.6037,0 1.9619,-0.29189 2.2741,-1.85288 0.2831,-1.41564 0.762,-1.89823 2.0293,-2.04507 1.1524,-0.13352 1.7187,-0.61349 1.8552,-1.57235 0.1554,-1.09198 0.681,-1.42046 2.517,-1.57313 2.1107,-0.17552 2.3385,-0.37796 2.5178,-2.23804 0.1796,-1.86306 0.3856,-2.04507 2.3147,-2.04507 2.185,0 4.0952,-1.32576 4.0952,-2.8421 0,-0.58486 0.9668,-0.92648 2.989,-1.05625 2.7219,-0.17465 3.0064,-0.34342 3.1849,-1.88933 0.178,-1.54224 0.4658,-1.71494 3.1462,-1.88775 2.8227,-0.18198 2.9589,-0.27869 3.1476,-2.23528 l 0.1971,-2.04508 4.6378,0 c 4.5915,0 4.6397,-0.0172 4.8368,-1.73044 0.1959,-1.70334 0.2755,-1.73332 5.0758,-1.91422 4.7102,-0.17751 4.8767,-0.23659 4.8767,-1.73045 0,-1.5361 0.042,-1.54666 6.0856,-1.54666 4.7798,0 6.3327,-0.22348 7.2364,-1.0414 0.633,-0.57277 1.1508,-1.42227 1.1508,-1.88776 0,-0.68377 2.7068,-0.84635 14.0909,-0.84635 15.0959,0 14.8547,0.0518 14.8547,-3.18876 0,-1.14882 0.80832,-1.20491 19.66409,-1.36435 l 19.66414,-0.16628 0,-2.83163 0,-2.83163 -130.25513,-0.17202 c -71.6404,-0.0946 -130.8922,-0.0184 -131.671,0.1693 -0.8768,0.2114 -1.4157,0.81578 -1.4157,1.58783 0,0.88121 -0.4241,1.24652 -1.4473,1.24652 -1.8309,0 -2.9575,1.11069 -2.9575,2.91569 0,1.06217 -0.4191,1.45411 -1.7158,1.60459 -1.0418,0.12088 -2.0021,0.77621 -2.4442,1.66789 -0.4005,0.80784 -1.0442,1.78475 -1.4305,2.17093 -0.386,0.38617 -0.702,1.28528 -0.702,1.99804 0,0.71275 -0.5664,1.64959 -1.2585,2.08186 -0.6922,0.43228 -1.2586,1.17362 -1.2586,1.64745 0,0.47383 -0.4247,1.214 -0.9438,1.64485 -0.5191,0.43084 -0.9439,1.42629 -0.9439,2.21211 0,0.78581 -0.4247,1.59174 -0.9439,1.79095 -0.5403,0.20732 -0.9438,1.14648 -0.9438,2.19632 0,1.26909 -0.3663,1.92989 -1.1889,2.145 -0.8876,0.23213 -1.3011,1.1275 -1.6321,3.53428 -0.2439,1.77286 -0.71,3.22338 -1.0359,3.22338 -0.9033,0 -2.9711,5.28295 -3.4342,8.7737 -0.2305,1.73785 -0.7942,3.25246 -1.2798,3.43881 -0.4774,0.18317 -0.8679,0.77663 -0.8679,1.3188 0,0.54217 -0.3976,1.61292 -0.8834,2.37944 -0.486,0.76652 -1.0733,2.57494 -1.3055,4.01871 -0.2322,1.44377 -0.8257,2.7799 -1.319,2.96919 -0.498,0.1911 -0.8969,1.17602 -0.8969,2.21454 0,1.0287 -0.2832,2.04537 -0.6292,2.25927 -0.3462,0.21389 -0.6293,1.08394 -0.6293,1.93343 0,0.8495 -0.2832,2.10702 -0.6293,2.79449 l -1.2584,2.49993 c -0.3462,0.68749 -0.6293,1.82903 -0.6293,2.53677 0,0.70773 -0.4247,1.44977 -0.9438,1.64898 -0.5192,0.19921 -0.9439,0.80734 -0.9439,1.3514 0,1.08544 -1.1233,4.89845 -1.9126,6.49201 -0.2747,0.55479 -0.697,2.32456 -0.9381,3.93282 -0.2793,1.86245 -0.7553,2.92413 -1.311,2.92413 -0.5715,0 -0.8723,0.733 -0.8723,2.12532 0,1.16894 -0.4109,2.46633 -0.9131,2.88309 -0.5021,0.41676 -1.1042,2.07962 -1.3379,3.69525 -0.2336,1.61562 -0.6821,3.26147 -0.9964,3.65743 -0.3145,0.39596 -0.7429,2.16574 -0.9522,3.93283 -0.2093,1.76708 -0.6242,3.21288 -0.9222,3.21288 -0.2979,0 -0.5416,0.78137 -0.5416,1.73638 0,1.03177 -0.491,2.04308 -1.21,2.49213 -0.8451,0.52773 -1.3416,1.80737 -1.6457,4.24151 -0.2396,1.91717 -0.6861,3.48576 -0.9923,3.48576 -0.3061,0 -0.5567,0.47544 -0.5567,1.05651 0,1.18285 -1.1209,4.97257 -1.965,6.64329 -0.3036,0.60096 -0.552,1.63253 -0.552,2.29237 0,0.65985 -0.4022,1.35405 -0.8938,1.54267 -0.5393,0.207 -1.0661,1.72298 -1.3286,3.82401 -0.2393,1.91458 -0.8059,3.78899 -1.2595,4.16536 -0.4534,0.37636 -1.013,1.87145 -1.2433,3.3224 -0.4647,2.92643 -2.1965,7.35748 -2.8755,7.35748 -0.2402,0 -0.5872,0.7787 -0.771,1.73044 -0.1838,0.95174 -0.67,2.8631 -1.0804,4.24746 -0.4104,1.38435 -1.0609,4.00361 -1.4456,5.82057 -0.3847,1.81697 -0.9152,3.30358 -1.1787,3.30358 -0.8745,0 -2.8993,4.97434 -3.3457,8.21941 -0.2498,1.8166 -0.8189,3.34223 -1.3183,3.53384 -0.4833,0.18545 -0.8787,0.98012 -0.8787,1.76593 0,0.78583 -0.3888,1.75154 -0.8642,2.14604 -0.4753,0.3945 -1.0515,2.12815 -1.2802,3.85257 -0.2846,2.14548 -0.7071,3.13528 -1.3381,3.13528 -0.6011,0 -0.9223,0.64444 -0.9223,1.8506 0,1.01785 -0.2831,2.02564 -0.6292,2.23953 -0.346,0.2139 -0.6292,1.06338 -0.6292,1.88775 0,0.82437 -0.2832,1.67387 -0.6293,1.88776 -0.3461,0.2139 -0.6292,1.22168 -0.6292,2.23951 0,1.2255 -0.3189,1.85063 -0.9439,1.85063 -0.617,0 -0.9439,0.6176 -0.9439,1.78288 0,0.98058 -0.1941,1.97693 -0.4312,2.21412 -0.6107,0.61068 -2.0649,4.92604 -2.0763,6.16101 -0.01,0.56864 -0.4342,1.19686 -0.9533,1.39607 -0.5192,0.19922 -0.9439,1.079 -0.9439,1.95509 0,0.87608 -0.2832,1.59288 -0.6293,1.59288 -0.3461,0 -0.6293,0.64497 -0.6293,1.43328 0,0.7883 -0.5247,1.8826 -1.1661,2.43175 -0.7018,0.6009 -1.3369,2.28519 -1.5948,4.22999 -0.2951,2.22419 -0.7162,3.23151 -1.3508,3.23151 -0.6011,0 -0.9223,0.64445 -0.9223,1.85061 0,1.01784 -0.2832,2.02562 -0.6292,2.23953 -0.3461,0.21388 -0.6292,0.92854 -0.6292,1.58812 0,0.65957 -0.5328,1.48432 -1.1839,1.83277 -0.8347,0.44674 -1.3103,1.64616 -1.6128,4.06823 -0.2361,1.88909 -0.8524,3.78594 -1.3696,4.21522 -1.1087,0.92011 -2.7555,4.64879 -2.7555,6.23886 0,0.61288 -0.4248,1.27733 -0.9439,1.47653 -0.5192,0.19921 -0.9439,1.04597 -0.9439,1.88169 0,0.99028 -0.4383,1.63411 -1.2585,1.84859 -0.8429,0.22042 -1.2585,0.85831 -1.2585,1.93154 0,1.86093 -1.2191,4.80791 -1.9888,4.80791 -0.2905,0 -0.5283,0.95805 -0.5283,2.12899 0,1.59979 -0.3128,2.21079 -1.2584,2.45811 -0.7216,0.18868 -1.2586,0.85829 -1.2586,1.56946 0,0.6822 -0.4061,1.57749 -0.9026,1.98953 -0.9904,0.82188 -3.5021,5.37342 -3.5021,6.34607 0,0.33544 -0.5664,1.17621 -1.2584,1.86838 -0.6923,0.69219 -1.2586,1.68326 -1.2586,2.20239 0,0.51912 -0.2832,0.94388 -0.6292,0.94388 -0.3461,0 -0.6292,0.78233 -0.6292,1.73853 0,1.1994 -0.4391,1.93118 -1.4159,2.35971 -0.875,0.3839 -1.4919,1.28208 -1.6149,2.35158 -0.1096,0.95175 -0.4444,1.73045 -0.7442,1.73045 -0.2998,0 -0.7404,0.61535 -0.9791,1.36744 -0.2387,0.75209 -0.9657,1.93814 -1.6154,2.63566 -0.6499,0.69753 -1.1816,1.75086 -1.1816,2.34074 0,0.58989 -0.4248,1.23552 -0.944,1.43474 -0.5191,0.19921 -0.9438,0.81605 -0.9438,1.37076 0,0.55472 -0.4248,1.43333 -0.9439,1.95246 -0.5191,0.51914 -0.9439,1.63156 -0.9439,2.47206 0,0.93015 -0.3646,1.52818 -0.9318,1.52818 -0.5126,0 -1.0944,0.64745 -1.293,1.43877 -0.1987,0.79133 -0.9827,1.7116 -1.7425,2.04507 -0.7597,0.33346 -1.4691,1.22286 -1.5763,1.97642 -0.1074,0.75357 -0.6029,1.70851 -1.1013,2.12212 -0.4984,0.4136 -0.906,1.42523 -0.906,2.24807 0,1.05477 -0.3558,1.49609 -1.2058,1.49609 -0.7346,0 -1.5324,0.73773 -2.0415,1.88775 -0.4706,1.06352 -1.3179,1.88776 -1.9404,1.88776 -0.8023,0 -1.1049,0.50495 -1.1049,1.84399 0,1.4332 -0.3153,1.88879 -1.4158,2.04506 -0.7787,0.1106 -1.6751,0.79127 -1.992,1.5126 -0.317,0.72133 -1.1664,1.57082 -1.8878,1.88776 -0.774,0.34007 -1.3931,1.28544 -1.5106,2.30668 -0.1417,1.23097 -0.5549,1.73044 -1.4316,1.73044 -0.8463,0 -1.3428,0.55185 -1.5847,1.76153 -0.1947,0.97341 -0.9619,2.02918 -1.7147,2.35971 -0.7493,0.32898 -1.4507,1.21863 -1.5587,1.977 -0.1477,1.03795 -0.6922,1.42689 -2.2024,1.57312 -1.7463,0.16913 -2.0313,0.45434 -2.2005,2.20225 -0.1693,1.74835 -0.454,2.03311 -2.2023,2.20239 -1.5299,0.14813 -2.056,0.53152 -2.2091,1.61023 -0.1568,1.10352 -0.6113,1.41582 -2.0608,1.41582 -1.563,0 -1.9199,0.30124 -2.2374,1.88775 -0.3066,1.53295 -0.6938,1.88776 -2.0607,1.88776 -2.0658,0 -3.1935,1.0444 -3.1935,2.95748 0,1.27049 -0.3093,1.44728 -2.5326,1.44728 -2.3013,0 -2.5668,0.16969 -2.9041,1.85623 -0.3395,1.69787 -0.6201,1.87236 -3.2877,2.04507 -2.4767,0.16035 -2.9471,0.40242 -3.1177,1.60466 -0.1597,1.12405 -0.6135,1.41993 -2.2025,1.43582 -2.3047,0.0231 -4.2036,1.24043 -4.2036,2.69493 0,0.80049 -0.8579,1.04065 -4.2475,1.18914 l -4.2475,0.18606 -0.1971,2.04507 -0.1972,2.04507 -5.3088,0 -5.3087,0 0,1.86714 0,1.86715 -7.0792,0.17792 c -6.8,0.17091 -7.087,0.23373 -7.2801,1.59374 l -0.2011,1.41582 -13.4402,0 c -14.3235,0 -15.4178,0.22587 -15.4178,3.18197 0,1.15606 -0.763,1.21101 -19.0349,1.37088 l -19.0348,0.16653 -0.1918,2.98895 -0.1919,2.98895 130.8456,0 c 130.3162,0 130.8467,-0.005 131.1744,-1.2585 z"
     id="path4898"
     inkscape:connector-curvature="0" />
  <path
     style="fill:none;fill-rule:evenodd;stroke:#000000;stroke-width:1.89999998;stroke-linecap:butt;stroke-linejoin:miter;stroke-miterlimit:4;stroke-dasharray:none;stroke-opacity:1"
     d="m 211.5302,577.3296 0,8.08122"
     id="path4902"
     inkscape:connector-curvature="0" />
  <path
     style="fill:none;fill-rule:evenodd;stroke:#000000;stroke-width:1.89999998;stroke-linecap:butt;stroke-linejoin:miter;stroke-miterlimit:4;stroke-dasharray:none;stroke-opacity:1"
     d="m 338.74629,576.76139 0,8.08122"
     id="path4902-6"
     inkscape:connector-curvature="0" />
  <path
     style="fill:none;fill-rule:evenodd;stroke:#000000;stroke-width:1.89999998;stroke-linecap:butt;stroke-linejoin:miter;stroke-miterlimit:4;stroke-dasharray:none;stroke-opacity:1"
     d="m 468.04581,577.26647 0,8.08122"
     id="path4902-3"
     inkscape:connector-curvature="0" />
  <path
     style="fill:none;fill-rule:evenodd;stroke:#000000;stroke-width:1.89999998;stroke-linecap:butt;stroke-linejoin:miter;stroke-miterlimit:4;stroke-dasharray:none;stroke-opacity:1"
     d="m 596.33518,577.26647 0,8.08122"
     id="path4902-9"
     inkscape:connector-curvature="0" />
  <path
     style="fill:none;fill-rule:evenodd;stroke:#000000;stroke-width:1.89999998;stroke-linecap:butt;stroke-linejoin:miter;stroke-miterlimit:4;stroke-dasharray:none;stroke-opacity:1"
     d="m 724.37202,577.77155 0,8.08122"
     id="path4902-7"
     inkscape:connector-curvature="0" />
  <text
     xml:space="preserve"
     style="font-style:normal;font-weight:normal;font-size:40px;line-height:125%;font-family:sans-serif;letter-spacing:0px;word-spacing:0px;fill:#000000;fill-opacity:1;stroke:none;stroke-width:1px;stroke-linecap:butt;stroke-linejoin:miter;stroke-opacity:1"
     x="184.19295"
     y="634.31976"
     id="text4948"
     sodipodi:linespacing="125%"><tspan
       sodipodi:role="line"
       id="tspan4950"
       x="184.19295"
       y="634.31976">-10</tspan></text>
  <text
     xml:space="preserve"
     style="font-style:normal;font-weight:normal;font-size:40px;line-height:125%;font-family:sans-serif;letter-spacing:0px;word-spacing:0px;fill:#000000;fill-opacity:1;stroke:none;stroke-width:1px;stroke-linecap:butt;stroke-linejoin:miter;stroke-opacity:1"
     x="326.94864"
     y="631.69873"
     id="text4948-7"
     sodipodi:linespacing="125%"><tspan
       sodipodi:role="line"
       id="tspan4950-5"
       x="326.94864"
       y="631.69873">0</tspan></text>
  <text
     xml:space="preserve"
     style="font-style:normal;font-weight:normal;font-size:40px;line-height:125%;font-family:sans-serif;letter-spacing:0px;word-spacing:0px;fill:#000000;fill-opacity:1;stroke:none;stroke-width:1px;stroke-linecap:butt;stroke-linejoin:miter;stroke-opacity:1"
     x="451.35986"
     y="633.73938"
     id="text4948-3"
     sodipodi:linespacing="125%"><tspan
       sodipodi:role="line"
       id="tspan4950-2"
       x="451.35986"
       y="633.73938">10</tspan></text>
  <text
     xml:space="preserve"
     style="font-style:normal;font-weight:normal;font-size:40px;line-height:125%;font-family:sans-serif;letter-spacing:0px;word-spacing:0px;fill:#000000;fill-opacity:1;stroke:none;stroke-width:1px;stroke-linecap:butt;stroke-linejoin:miter;stroke-opacity:1"
     x="579.79138"
     y="633.71906"
     id="text4948-9"
     sodipodi:linespacing="125%"><tspan
       sodipodi:role="line"
       id="tspan4950-9"
       x="579.79138"
       y="633.71906">20</tspan></text>
  <text
     xml:space="preserve"
     style="font-style:normal;font-weight:normal;font-size:40px;line-height:125%;font-family:sans-serif;letter-spacing:0px;word-spacing:0px;fill:#000000;fill-opacity:1;stroke:none;stroke-width:1px;stroke-linecap:butt;stroke-linejoin:miter;stroke-opacity:1"
     x="707.89801"
     y="631.67847"
     id="text4948-4"
     sodipodi:linespacing="125%"><tspan
       sodipodi:role="line"
       id="tspan4950-52"
       x="707.89801"
       y="631.67847">30</tspan></text>
  <text
     xml:space="preserve"
     style="font-style:normal;font-weight:normal;font-size:40px;line-height:125%;font-family:sans-serif;letter-spacing:0px;word-spacing:0px;fill:#000000;fill-opacity:1;stroke:none;stroke-width:1px;stroke-linecap:butt;stroke-linejoin:miter;stroke-opacity:1"
     x="109.83926"
     y="579.17084"
     id="text4948-7-7"
     sodipodi:linespacing="125%"><tspan
       sodipodi:role="line"
       id="tspan4950-5-9"
       x="109.83926"
       y="579.17084">0</tspan></text>
  <text
     xml:space="preserve"
     style="font-style:normal;font-weight:normal;font-size:40px;line-height:125%;font-family:sans-serif;letter-spacing:0px;word-spacing:0px;fill:#000000;fill-opacity:1;stroke:none;stroke-width:1px;stroke-linecap:butt;stroke-linejoin:miter;stroke-opacity:1"
     x="110.84943"
     y="197.33315"
     id="text4948-7-2"
     sodipodi:linespacing="125%"><tspan
       sodipodi:role="line"
       id="tspan4950-5-6"
       x="110.84943"
       y="197.33315">1</tspan></text>
  <path
     style="fill:none;fill-rule:evenodd;stroke:#000000;stroke-width:1.60000002;stroke-linecap:butt;stroke-linejoin:miter;stroke-miterlimit:4;stroke-dasharray:none;stroke-opacity:1"
     d="m 158.32143,560.89286 -9.82143,0"
     id="path5020"
     inkscape:connector-curvature="0" />
  <path
     style="fill:none;fill-rule:evenodd;stroke:#000000;stroke-width:1.60000002;stroke-linecap:butt;stroke-linejoin:miter;stroke-miterlimit:4;stroke-dasharray:none;stroke-opacity:1"
     d="m 158.76786,484.46429 -9.82143,0"
     id="path5020-6"
     inkscape:connector-curvature="0" />
  <path
     style="fill:none;fill-rule:evenodd;stroke:#000000;stroke-width:1.60000002;stroke-linecap:butt;stroke-linejoin:miter;stroke-miterlimit:4;stroke-dasharray:none;stroke-opacity:1"
     d="m 158.41071,408.75 -9.82143,0"
     id="path5020-7"
     inkscape:connector-curvature="0" />
  <path
     style="fill:none;fill-rule:evenodd;stroke:#000000;stroke-width:1.60000002;stroke-linecap:butt;stroke-linejoin:miter;stroke-miterlimit:4;stroke-dasharray:none;stroke-opacity:1"
     d="m 158.05357,332.32143 -9.82143,0"
     id="path5020-3"
     inkscape:connector-curvature="0" />
  <path
     style="fill:none;fill-rule:evenodd;stroke:#000000;stroke-width:1.60000002;stroke-linecap:butt;stroke-linejoin:miter;stroke-miterlimit:4;stroke-dasharray:none;stroke-opacity:1"
     d="m 158.98215,255.71429 -9.82143,0"
     id="path5020-4"
     inkscape:connector-curvature="0" />
  <path
     style="fill:none;fill-rule:evenodd;stroke:#000000;stroke-width:1.60000002;stroke-linecap:butt;stroke-linejoin:miter;stroke-miterlimit:4;stroke-dasharray:none;stroke-opacity:1"
     d="m 158.26786,179.28572 -9.82143,0"
     id="path5020-45"
     inkscape:connector-curvature="0" />
</svg>
